<svg version="1.1" viewBox="0.0 0.0 960.0 540.0" fill="none" stroke="none" stroke-linecap="square" stroke-miterlimit="10" xmlns:xlink="http://www.w3.org/1999/xlink" xmlns="http://www.w3.org/2000/svg"><clipPath id="g2fd4d34a9bb_0_0.0"><path d="m0 0l960.0 0l0 540.0l-960.0 0l0 -540.0z" clip-rule="nonzero"/></clipPath><g clip-path="url(#g2fd4d34a9bb_0_0.0)"><path fill="#000000" fill-opacity="0.0" d="m0 0l960.0 0l0 540.0l-960.0 0z" fill-rule="evenodd"/><g filter="url(#shadowFilter-g2fd4d34a9bb_0_0.1)"><use xlink:href="#g2fd4d34a9bb_0_0.1" transform="matrix(1.0 0.0 0.0 1.0 0.0 2.0)"/></g><defs><filter id="shadowFilter-g2fd4d34a9bb_0_0.1" filterUnits="userSpaceOnUse"><feGaussianBlur in="SourceAlpha" stdDeviation="2.0" result="blur"/><feComponentTransfer in="blur" color-interpolation-filters="sRGB"><feFuncR type="linear" slope="0" intercept="0.0"/><feFuncG type="linear" slope="0" intercept="0.0"/><feFuncB type="linear" slope="0" intercept="0.0"/><feFuncA type="linear" slope="0.5" intercept="0"/></feComponentTransfer></filter></defs><g id="g2fd4d34a9bb_0_0.1"><path fill="#5f7d95" d="m313.77905 66.93631l-0.55474854 159.12817l56.276794 91.20062l0.554718 -159.12817l-56.276764 -91.20062z" fill-rule="evenodd"/></g><g filter="url(#shadowFilter-g2fd4d34a9bb_0_0.2)"><use xlink:href="#g2fd4d34a9bb_0_0.2" transform="matrix(1.0 0.0 0.0 1.0 0.0 2.0)"/></g><defs><filter id="shadowFilter-g2fd4d34a9bb_0_0.2" filterUnits="userSpaceOnUse"><feGaussianBlur in="SourceAlpha" stdDeviation="2.0" result="blur"/><feComponentTransfer in="blur" color-interpolation-filters="sRGB"><feFuncR type="linear" slope="0" intercept="0.0"/><feFuncG type="linear" slope="0" intercept="0.0"/><feFuncB type="linear" slope="0" intercept="0.0"/><feFuncA type="linear" slope="0.5" intercept="0"/></feComponentTransfer></filter></defs><g id="g2fd4d34a9bb_0_0.2"><path fill="#374957" d="m404.14328 154.45999c-1.6642151 0 -3.4623108 0 -5.1073914 0.17002869l-0.28692627 0c-1.7789612 0 -3.4431763 0.14878845 -5.241272 0.29756165l-1.7789917 0.1487732l-3.7301025 0.31881714l-0.9755554 0.1487732l-0.8225403 0.1487732c-1.9320068 0.14878845 -3.8640137 0.46759033 -5.6621094 0.6163635l-0.68862915 0.14878845c-2.065918 0.2975464 -4.1318054 0.7651367 -6.1977234 1.0839386l-0.55474854 0.14878845l-2.9075623 0.6163635l-0.535614 159.10692l3.4431763 -0.6163635c2.065918 -0.44631958 4.131836 -0.7651367 6.1977234 -1.0626831l0.7077637 -0.1487732c1.7789917 -0.31881714 3.7109985 -0.6163635 5.642975 -0.76516724l1.6642151 -0.17001343c1.2433777 -0.1487732 2.4867249 -0.2975464 3.7301025 -0.4463501l1.7789917 -0.17001343c1.7980957 0 3.4622803 -0.1487732 5.241272 -0.2975464l12.969299 0l2.9075623 0.1487732l2.3337097 0.1487732l2.9075623 0.17001343l2.3337097 0.2975769l2.7736816 0.31878662l2.3337097 0.14880371l2.7736511 0.44631958l2.3337097 0.31881714l2.9075623 0.6163635l2.3337097 0.44631958l2.9075928 0.6163635l2.0658875 0.46759033c2.065918 0.44631958 4.1318054 0.9139099 6.0638123 1.5302734l0.55474854 -159.27695c-1.9320068 -0.6163635 -3.9979248 -1.0626984 -5.9299316 -1.5302887l-0.8225403 -0.1487732c-0.42080688 -0.1487732 -0.8416443 -0.31880188 -1.3772583 -0.31880188l-2.9075623 -0.5951233l-2.1997986 -0.46757507l-3.0414734 -0.46759033l-1.2433777 -0.29756165l-0.9564514 -0.1487732l-2.7736511 -0.31880188l-2.4676208 -0.29756165l-2.7736511 -0.31880188l-1.5112 -0.14878845l-0.82250977 0l-2.9075928 -0.2975464l-2.1997986 -0.14878845l-2.9075623 -0.17002869z" fill-rule="evenodd"/></g><g filter="url(#shadowFilter-g2fd4d34a9bb_0_0.3)"><use xlink:href="#g2fd4d34a9bb_0_0.3" transform="matrix(1.0 0.0 0.0 1.0 0.0 2.0)"/></g><defs><filter id="shadowFilter-g2fd4d34a9bb_0_0.3" filterUnits="userSpaceOnUse"><feGaussianBlur in="SourceAlpha" stdDeviation="2.0" result="blur"/><feComponentTransfer in="blur" color-interpolation-filters="sRGB"><feFuncR type="linear" slope="0" intercept="0.0"/><feFuncG type="linear" slope="0" intercept="0.0"/><feFuncB type="linear" slope="0" intercept="0.0"/><feFuncA type="linear" slope="0.5" intercept="0"/></feComponentTransfer></filter></defs><g id="g2fd4d34a9bb_0_0.3"><path fill="#5f7d95" d="m508.98798 70.31568l-60.293854 89.819115l-0.554718 159.12817l60.293823 -89.84036l0.55474854 -159.10693z" fill-rule="evenodd"/></g><g filter="url(#shadowFilter-g2fd4d34a9bb_0_0.4)"><use xlink:href="#g2fd4d34a9bb_0_0.4" transform="matrix(1.0 0.0 0.0 1.0 0.0 2.0)"/></g><defs><filter id="shadowFilter-g2fd4d34a9bb_0_0.4" filterUnits="userSpaceOnUse"><feGaussianBlur in="SourceAlpha" stdDeviation="2.0" result="blur"/><feComponentTransfer in="blur" color-interpolation-filters="sRGB"><feFuncR type="linear" slope="0" intercept="0.0"/><feFuncG type="linear" slope="0" intercept="0.0"/><feFuncB type="linear" slope="0" intercept="0.0"/><feFuncA type="linear" slope="0.5" intercept="0"/></feComponentTransfer></filter></defs><g id="g2fd4d34a9bb_0_0.4"><path fill="#a5b7c6" d="m404.60236 56.266834c-30.433838 0 -60.867676 3.5494041 -90.8233 10.669476l56.276764 91.20062c11.706818 -2.5292206 23.547516 -3.825714 35.36908 -3.825714c14.537842 0 29.05658 1.9341125 43.269226 5.823578l60.293854 -89.819115c-34.316986 -9.35173 -69.36087 -14.048847 -104.38562 -14.048847z" fill-rule="evenodd"/></g><g filter="url(#shadowFilter-g2fd4d34a9bb_0_0.5)"><use xlink:href="#g2fd4d34a9bb_0_0.5" transform="matrix(1.0 0.0 0.0 1.0 0.0 2.0)"/></g><defs><filter id="shadowFilter-g2fd4d34a9bb_0_0.5" filterUnits="userSpaceOnUse"><feGaussianBlur in="SourceAlpha" stdDeviation="2.0" result="blur"/><feComponentTransfer in="blur" color-interpolation-filters="sRGB"><feFuncR type="linear" slope="0" intercept="0.0"/><feFuncG type="linear" slope="0" intercept="0.0"/><feFuncB type="linear" slope="0" intercept="0.0"/><feFuncA type="linear" slope="0.5" intercept="0"/></feComponentTransfer></filter></defs><g id="g2fd4d34a9bb_0_0.5"><path fill="#000000" fill-opacity="0.0" d="m344.02307 61.301815l120.73938 0l0 87.86076l-120.73938 0z" fill-rule="evenodd"/><path fill="#ffffff" d="m386.01608 93.34182l-3.359375 0l0 -12.59375q0 -3.171875 2.984375 -3.171875l1.765625 0q1.765625 0 2.5 1.15625q0.703125 -1.15625 2.5 -1.15625l1.78125 0q2.96875 0 2.96875 3.171875l0 12.59375l-3.359375 0l0 -12.890625q0 -0.1875 -0.140625 -0.328125q-0.125 -0.15625 -0.3125 -0.15625l-1.296875 0q-0.1875 0 -0.328125 0.15625q-0.125 0.140625 -0.125 0.328125l0 12.890625l-3.359375 0l0 -12.890625q0 -0.1875 -0.140625 -0.328125q-0.125 -0.15625 -0.328125 -0.15625l-1.296875 0q-0.1875 0 -0.328125 0.15625q-0.125 0.140625 -0.125 0.328125l0 12.890625zm18.77594 -11.71875l3.21875 0l0 11.71875l-2.9375 0l0 -0.59375q-0.734375 0.828125 -2.25 0.828125l-0.5 0q-2.984375 0 -2.984375 -3.15625l0 -8.796875l3.21875 0l0 9.171875q0 0.1875 0.125 0.34375q0.140625 0.140625 0.328125 0.140625l1.328125 0q0.1875 0 0.3125 -0.140625q0.140625 -0.15625 0.140625 -0.34375l0 -9.171875zm8.613586 11.71875l-3.21875 0l0 -15.53125l3.21875 0l0 15.53125zm6.438507 -1.84375l0.953125 0l0 2.078125l-2.25 0q-2.984375 0 -2.984375 -3.15625l0 -11.328125l3.21875 0l0 2.53125l2.015625 0l0 2.328125l-2.015625 0l0 6.390625q0 0.671875 0.265625 0.921875q0.265625 0.234375 0.796875 0.234375zm5.9119873 -11.328125q-0.515625 0.5 -1.234375 0.5q-0.71875 0 -1.25 -0.515625q-0.53125 -0.515625 -0.53125 -1.25q0 -0.734375 0.53125 -1.25q0.53125 -0.515625 1.25 -0.515625q0.71875 0 1.234375 0.515625q0.515625 0.515625 0.515625 1.265625q0 0.734375 -0.515625 1.25zm-2.84375 13.171875l0 -11.71875l3.21875 0l0 11.71875l-3.21875 0z" fill-rule="nonzero"/><path fill="#ffffff" d="m378.95535 115.78245l0 6.359375l-3.359375 0l0 -15.53125l5.96875 0q2.984375 0 2.984375 3.171875l0 1.796875q0 1.921875 -1.375 2.453125q1.203125 0.421875 1.203125 1.96875l0 6.140625l-3.359375 0l0 -5.875q0 -0.484375 -0.453125 -0.484375l-1.609375 0zm0 -6.890625l0 4.53125l1.78125 0q0.1875 0 0.3125 -0.140625q0.140625 -0.140625 0.140625 -0.328125l0 -3.578125q0 -0.1875 -0.140625 -0.328125q-0.125 -0.15625 -0.3125 -0.15625l-1.78125 0zm13.315094 1.296875q2.984375 0 2.984375 3.171875l0 3.796875l-5.453125 0l0 2.4375q0 0.1875 0.125 0.34375q0.140625 0.140625 0.328125 0.140625l1.328125 0q0.1875 0 0.3125 -0.140625q0.140625 -0.15625 0.140625 -0.34375l0 -1.296875l3.21875 0l0 0.921875q0 3.15625 -2.984375 3.15625l-2.703125 0q-2.984375 0 -2.984375 -3.15625l0 -5.859375q0 -3.171875 2.984375 -3.171875l2.703125 0zm-2.46875 4.84375l2.234375 0l0 -2.15625q0 -0.1875 -0.140625 -0.328125q-0.125 -0.15625 -0.3125 -0.15625l-1.328125 0q-0.1875 0 -0.328125 0.15625q-0.125 0.140625 -0.125 0.328125l0 2.15625zm15.893097 -4.609375l0 12.609375q0 3.171875 -2.984375 3.171875l-2.390625 0q-2.984375 0 -2.984375 -3.171875l0 -0.390625l2.90625 0l0 0.765625q0 0.203125 0.125 0.34375q0.140625 0.140625 0.328125 0.140625l1.328125 0q0.1875 0 0.3125 -0.140625q0.140625 -0.140625 0.140625 -0.34375l0 -2.390625q-0.75 0.578125 -1.96875 0.578125l-0.5 0q-2.984375 0 -2.984375 -3.171875l0 -5.0625q0 -3.171875 2.984375 -3.171875l0.5 0q1.71875 0 2.46875 1.109375l0 -0.875l2.71875 0zm-3.21875 8.375l0 -5.828125q0 -0.1875 -0.140625 -0.328125q-0.125 -0.140625 -0.3125 -0.140625l-1.328125 0q-0.1875 0 -0.328125 0.140625q-0.125 0.140625 -0.125 0.328125l0 5.828125q0 0.203125 0.125 0.34375q0.140625 0.140625 0.328125 0.140625l1.328125 0q0.1875 0 0.3125 -0.140625q0.140625 -0.140625 0.140625 -0.34375zm8.676086 -9.828125q-0.515625 0.5 -1.234375 0.5q-0.71875 0 -1.25 -0.515625q-0.53125 -0.515625 -0.53125 -1.25q0 -0.734375 0.53125 -1.25q0.53125 -0.515625 1.25 -0.515625q0.71875 0 1.234375 0.515625q0.515625 0.515625 0.515625 1.265625q0 0.734375 -0.515625 1.25zm-2.84375 13.171875l0 -11.71875l3.21875 0l0 11.71875l-3.21875 0zm14.138367 -8.78125l0 5.859375q0 3.15625 -2.984375 3.15625l-2.703125 0q-2.984375 0 -2.984375 -3.15625l0 -5.859375q0 -3.171875 2.984375 -3.171875l2.703125 0q2.984375 0 2.984375 3.171875zm-3.21875 6.53125l0 -7.234375q0 -0.1875 -0.140625 -0.328125q-0.125 -0.140625 -0.3125 -0.140625l-1.328125 0q-0.1875 0 -0.328125 0.140625q-0.125 0.140625 -0.125 0.328125l0 7.234375q0 0.1875 0.125 0.328125q0.140625 0.140625 0.328125 0.140625l1.328125 0q0.1875 0 0.3125 -0.140625q0.140625 -0.140625 0.140625 -0.328125zm8.613586 2.25l-3.21875 0l0 -11.71875l2.9375 0l0 0.609375q0.734375 -0.84375 2.25 -0.84375l0.5 0q2.984375 0 2.984375 3.171875l0 8.78125l-3.21875 0l0 -9.171875q0 -0.1875 -0.140625 -0.328125q-0.125 -0.140625 -0.3125 -0.140625l-1.328125 0q-0.1875 0 -0.328125 0.140625q-0.125 0.140625 -0.125 0.328125l0 9.171875z" fill-rule="nonzero"/></g><g filter="url(#shadowFilter-g2fd4d34a9bb_0_0.6)"><use xlink:href="#g2fd4d34a9bb_0_0.6" transform="matrix(1.0 0.0 0.0 1.0 0.0 2.0)"/></g><defs><filter id="shadowFilter-g2fd4d34a9bb_0_0.6" filterUnits="userSpaceOnUse"><feGaussianBlur in="SourceAlpha" stdDeviation="2.0" result="blur"/><feComponentTransfer in="blur" color-interpolation-filters="sRGB"><feFuncR type="linear" slope="0" intercept="0.0"/><feFuncG type="linear" slope="0" intercept="0.0"/><feFuncB type="linear" slope="0" intercept="0.0"/><feFuncA type="linear" slope="0.5" intercept="0"/></feComponentTransfer></filter></defs><g id="g2fd4d34a9bb_0_0.6"><path fill="#a5b7c6" d="m314.20026 124.32892c-64.29175 13.945755 -118.92348 42.219864 -148.17134 81.55112l139.88857 35.18004c12.548462 -16.968292 36.555054 -29.11583 64.55954 -34.625275l-56.276764 -82.10588z" fill-rule="evenodd"/></g><g filter="url(#shadowFilter-g2fd4d34a9bb_0_0.7)"><use xlink:href="#g2fd4d34a9bb_0_0.7" transform="matrix(1.0 0.0 0.0 1.0 0.0 2.0)"/></g><defs><filter id="shadowFilter-g2fd4d34a9bb_0_0.7" filterUnits="userSpaceOnUse"><feGaussianBlur in="SourceAlpha" stdDeviation="2.0" result="blur"/><feComponentTransfer in="blur" color-interpolation-filters="sRGB"><feFuncR type="linear" slope="0" intercept="0.0"/><feFuncG type="linear" slope="0" intercept="0.0"/><feFuncB type="linear" slope="0" intercept="0.0"/><feFuncA type="linear" slope="0.5" intercept="0"/></feComponentTransfer></filter></defs><g id="g2fd4d34a9bb_0_0.7"><path fill="#374957" d="m370.20923 206.4348c-1.3772583 0.4017334 -3.0414734 0.6886902 -4.686554 1.0904083l-1.5302734 0.42086792l-3.15625 0.82258606l-1.7981262 0.42085266c-0.9755554 0.26782227 -1.9319763 0.55477905 -2.9075623 0.8226013l-1.9320068 0.5547638l-1.3772583 0.42086792l-1.6450806 0.5547638l-1.2433777 0.4017334c-1.3772583 0.5547638 -2.7545166 0.97561646 -4.15094 1.5303955l-0.5355835 0.26782227l-3.596222 1.3773499l-1.1094666 0.55477905c-1.090332 0.42085266 -2.1997986 0.9564972 -3.175354 1.3773499l-0.9564514 0.42086792c-1.2433777 0.5547638 -2.4867249 1.2434387 -3.7301025 1.9321289l-0.8225403 0.40171814c-0.9755554 0.55477905 -1.9320068 1.1095428 -2.8884277 1.6643219l-0.97558594 0.5547638l-0.8225403 0.4017334l-1.3772583 0.9756317l-1.6642151 1.1095276c-0.68862915 0.4017334 -1.3772583 0.82258606 -1.9319763 1.2243195l-1.7981262 1.243454l-1.7789612 1.3773499l-1.530304 1.243454c-0.68862915 0.42086792 -1.2433777 0.9756317 -1.7980957 1.3773651l-1.3772888 1.2434387l-0.26779175 0.2869568c-0.8225403 0.6886749 -1.5111694 1.511261 -2.3528442 2.1999512l-0.40170288 0.5547638c-0.8416443 0.82258606 -1.7980957 1.6643066 -2.4867249 2.6208038c-0.55474854 0.6886902 -1.1094666 1.243454 -1.6642151 1.9321289l-0.8225403 1.1095428l-0.554718 111.20259c0.8225403 -0.95648193 1.6641846 -2.06604 2.4867249 -3.0416565l0 -0.13391113c0.8225403 -0.95651245 1.5111694 -1.7982178 2.3528442 -2.620819l0.535614 -0.55477905c0.8416443 -0.8225708 1.6641846 -1.6451721 2.4867249 -2.4868774c0.55474854 -0.4017334 0.97558594 -0.8226013 1.530304 -1.2243347c0.40170288 -0.4208374 1.090332 -0.97561646 1.6450806 -1.3964844l1.530304 -1.2434387c0.68862915 -0.53564453 1.2242432 -0.95651245 1.9128723 -1.3773499c0.554718 -0.55477905 1.1094666 -0.8226013 1.6641846 -1.2434692c0.55474854 -0.26782227 1.2433777 -0.8225708 1.9320068 -1.2243042l1.6642151 -1.1095581l2.1997986 -1.3773499l0.9564514 -0.55477905c0.9755554 -0.55474854 1.9320068 -1.1095276 2.9075623 -1.6643066l0.8225403 -0.4017334c1.2433472 -0.68865967 2.4867249 -1.3773499 3.8640137 -1.9321289l0.82250977 -0.4208374c0.97558594 -0.42086792 2.0850525 -0.95651245 3.1753845 -1.3773804l1.1094666 -0.55474854c1.2433777 -0.42086792 2.3528442 -0.95651245 3.596222 -1.3773804l0.5355835 -0.26779175c1.3772888 -0.55477905 2.7736816 -0.975647 4.15094 -1.530426l1.2433777 -0.40170288l3.0223389 -0.975647l1.9320068 -0.55477905l2.9075623 -0.8225708l1.6450806 -0.42086792c1.1094666 -0.26782227 2.218933 -0.55477905 3.3092651 -0.8226013l1.530304 -0.4208374c1.6450806 -0.4017334 3.3092957 -0.6886902 4.9543457 -1.0904236l0.4208374 -111.06868z" fill-rule="evenodd"/></g><g filter="url(#shadowFilter-g2fd4d34a9bb_0_0.8)"><use xlink:href="#g2fd4d34a9bb_0_0.8" transform="matrix(1.0 0.0 0.0 1.0 0.0 2.0)"/></g><defs><filter id="shadowFilter-g2fd4d34a9bb_0_0.8" filterUnits="userSpaceOnUse"><feGaussianBlur in="SourceAlpha" stdDeviation="2.0" result="blur"/><feComponentTransfer in="blur" color-interpolation-filters="sRGB"><feFuncR type="linear" slope="0" intercept="0.0"/><feFuncG type="linear" slope="0" intercept="0.0"/><feFuncB type="linear" slope="0" intercept="0.0"/><feFuncA type="linear" slope="0.5" intercept="0"/></feComponentTransfer></filter></defs><g id="g2fd4d34a9bb_0_0.8"><path fill="#5f7d95" d="m166.02892 205.88004l-0.5547333 111.20261l139.88858 35.180023l0.554718 -111.20259l-139.88857 -35.18004z" fill-rule="evenodd"/></g><g filter="url(#shadowFilter-g2fd4d34a9bb_0_0.9)"><use xlink:href="#g2fd4d34a9bb_0_0.9" transform="matrix(1.0 0.0 0.0 1.0 0.0 2.0)"/></g><defs><filter id="shadowFilter-g2fd4d34a9bb_0_0.9" filterUnits="userSpaceOnUse"><feGaussianBlur in="SourceAlpha" stdDeviation="2.0" result="blur"/><feComponentTransfer in="blur" color-interpolation-filters="sRGB"><feFuncR type="linear" slope="0" intercept="0.0"/><feFuncG type="linear" slope="0" intercept="0.0"/><feFuncB type="linear" slope="0" intercept="0.0"/><feFuncA type="linear" slope="0.5" intercept="0"/></feComponentTransfer></filter></defs><g id="g2fd4d34a9bb_0_0.9"><path fill="#000000" fill-opacity="0.0" d="m215.13168 152.05315l120.73938 0l0 57.971146l-120.73938 0z" fill-rule="evenodd"/><path fill="#ffffff" d="m260.79193 168.5619l0 15.53125l-3.359375 0l0 -15.53125l3.359375 0zm8.324738 3.8125l2.71875 0l0 11.71875l-2.71875 0l0 -0.859375q-0.75 1.09375 -2.46875 1.09375l-0.5 0q-2.984375 0 -2.984375 -3.15625l0 -5.859375q0 -3.171875 2.984375 -3.171875l0.5 0q1.71875 0 2.46875 1.109375l0 -0.875zm-0.5 9.171875l0 -6.625q0 -0.1875 -0.140625 -0.328125q-0.125 -0.140625 -0.3125 -0.140625l-1.328125 0q-0.1875 0 -0.328125 0.140625q-0.125 0.140625 -0.125 0.328125l0 6.625q0 0.1875 0.125 0.34375q0.140625 0.140625 0.328125 0.140625l1.328125 0q0.1875 0 0.3125 -0.140625q0.140625 -0.15625 0.140625 -0.34375zm11.347961 -9.171875l2.71875 0l0 11.71875l-2.71875 0l0 -0.859375q-0.75 1.09375 -2.46875 1.09375l-0.5 0q-2.984375 0 -2.984375 -3.15625l0 -5.859375q0 -3.171875 2.984375 -3.171875l0.5 0q1.71875 0 2.46875 1.109375l0 -0.875zm-0.5 9.171875l0 -6.625q0 -0.1875 -0.140625 -0.328125q-0.125 -0.140625 -0.3125 -0.140625l-1.328125 0q-0.1875 0 -0.328125 0.140625q-0.125 0.140625 -0.125 0.328125l0 6.625q0 0.1875 0.125 0.34375q0.140625 0.140625 0.328125 0.140625l1.328125 0q0.1875 0 0.3125 -0.140625q0.140625 -0.15625 0.140625 -0.34375zm14.129211 -8.90625l-3.1875 0l0 -1.21875q0 -0.1875 -0.140625 -0.328125q-0.125 -0.15625 -0.3125 -0.15625l-1.328125 0q-0.1875 0 -0.328125 0.15625q-0.125 0.140625 -0.125 0.328125l0 2.765625q0 0.1875 0.125 0.328125q0.140625 0.140625 0.328125 0.140625l2.171875 0q2.96875 0.046875 2.96875 3.171875l0 3.34375q0 3.15625 -2.96875 3.15625l-2.84375 0q-2.96875 0 -2.96875 -3.15625l0 -1.609375l3.1875 0l0 1.71875q0 0.203125 0.125 0.34375q0.140625 0.140625 0.328125 0.140625l1.5 0q0.1875 0 0.3125 -0.140625q0.140625 -0.140625 0.140625 -0.34375l0 -3.046875q0 -0.1875 -0.140625 -0.328125q-0.125 -0.15625 -0.3125 -0.15625l-2.171875 0q-2.96875 0 -2.96875 -3.15625l0 -3.09375q0 -3.171875 2.96875 -3.171875l2.671875 0q2.96875 0 2.96875 3.171875l0 1.140625z" fill-rule="nonzero"/></g><g filter="url(#shadowFilter-g2fd4d34a9bb_0_0.10)"><use xlink:href="#g2fd4d34a9bb_0_0.10" transform="matrix(1.0 0.0 0.0 1.0 0.0 2.0)"/></g><defs><filter id="shadowFilter-g2fd4d34a9bb_0_0.10" filterUnits="userSpaceOnUse"><feGaussianBlur in="SourceAlpha" stdDeviation="2.0" result="blur"/><feComponentTransfer in="blur" color-interpolation-filters="sRGB"><feFuncR type="linear" slope="0" intercept="0.0"/><feFuncG type="linear" slope="0" intercept="0.0"/><feFuncB type="linear" slope="0" intercept="0.0"/><feFuncA type="linear" slope="0.5" intercept="0"/></feComponentTransfer></filter></defs><g id="g2fd4d34a9bb_0_0.10"><path fill="#374957" d="m305.70166 275.44196l0 0c-0.8225403 0.97561646 -1.3772583 1.9321289 -2.0658875 2.9077454l-0.55474854 0.95651245c-0.4208374 0.55474854 -0.68862915 1.1095276 -0.9564514 1.6643066l-0.15301514 0.26782227c-0.26779175 0.55474854 -0.55474854 1.1095276 -0.8225403 1.511261c-0.26779175 0.55477905 -0.554718 1.1095276 -0.8225403 1.6643066c-0.28692627 0.42086792 -0.4208374 0.95651245 -0.68862915 1.511261c-0.15301514 0.55477905 -0.28692627 0.84173584 -0.4208374 1.1095581c0 0.13391113 -0.13388062 0.26782227 -0.13388062 0.4208374c-0.13391113 0.53564453 -0.2869568 0.95651245 -0.55474854 1.5112915c-0.13391113 0.4208374 -0.26779175 1.1095276 -0.4208374 1.511261c-0.13388062 0.55477905 -0.26779175 0.97561646 -0.40170288 1.5303955c-0.13391113 0.53564453 -0.13391113 0.8226013 -0.28692627 1.2434387c0 0.13391113 0 0.26782227 0 0.4017334c0 0.42086792 -0.13391113 0.975647 -0.26779175 1.5303955c0 0.4017334 -0.13391113 0.95651245 -0.2869568 1.5112915l0 1.511261l0 1.1095276l0 0.95651245l-0.516449 76.15646l0 0c0.019104004 -0.21044922 0.038238525 -0.42086792 0.114746094 -0.66955566c0.13391113 -0.55477905 0.13391113 -0.97561646 0.13391113 -1.5303955c0.13391113 -0.55477905 0.13391113 -1.0904236 0.26779175 -1.511261c0.15304565 -0.55477905 0.2869568 -1.1095581 0.4208374 -1.6643066c0.13391113 -0.53564453 0.13391113 -0.95651245 0.28692627 -1.5112915c0.13391113 -0.4208374 0.4017334 -0.95648193 0.535614 -1.6643066c0.15304565 -0.68865967 0.28692627 -0.95648193 0.4208374 -1.511261c0.26779175 -0.42086792 0.4208374 -0.95651245 0.68862915 -1.511261c0.13391113 -0.55477905 0.4208374 -0.975647 0.68862915 -1.5303955c0.13391113 -0.53564453 0.4208374 -1.0904236 0.68865967 -1.5112915c0.28692627 -0.55474854 0.554718 -1.1095276 0.82250977 -1.6451721c0.2869568 -0.42086792 0.7077637 -1.2434387 1.1094971 -1.9321289c0.28692627 -0.2869568 0.42080688 -0.55477905 0.68862915 -0.8417053c0.554718 -0.95651245 1.2433472 -1.9321289 1.9320068 -2.8886414l0.554718 -79.06421zm-9.353943 100.98718c-0.019134521 0.22955322 -0.019134521 0.47824097 -0.019134521 0.8417053l0 2.06604l0.019134521 -2.9077454z" fill-rule="evenodd"/></g><g filter="url(#shadowFilter-g2fd4d34a9bb_0_0.11)"><use xlink:href="#g2fd4d34a9bb_0_0.11" transform="matrix(1.0 0.0 0.0 1.0 0.0 2.0)"/></g><defs><filter id="shadowFilter-g2fd4d34a9bb_0_0.11" filterUnits="userSpaceOnUse"><feGaussianBlur in="SourceAlpha" stdDeviation="2.0" result="blur"/><feComponentTransfer in="blur" color-interpolation-filters="sRGB"><feFuncR type="linear" slope="0" intercept="0.0"/><feFuncG type="linear" slope="0" intercept="0.0"/><feFuncB type="linear" slope="0" intercept="0.0"/><feFuncA type="linear" slope="0.5" intercept="0"/></feComponentTransfer></filter></defs><g id="g2fd4d34a9bb_0_0.11"><path fill="#374957" d="m306.5242 326.49988l-141.55278 32.425323l-0.53559875 79.045074l141.53363 -32.425323l0.55474854 -79.045074z" fill-rule="evenodd"/></g><g filter="url(#shadowFilter-g2fd4d34a9bb_0_0.12)"><use xlink:href="#g2fd4d34a9bb_0_0.12" transform="matrix(1.0 0.0 0.0 1.0 0.0 2.0)"/></g><defs><filter id="shadowFilter-g2fd4d34a9bb_0_0.12" filterUnits="userSpaceOnUse"><feGaussianBlur in="SourceAlpha" stdDeviation="2.0" result="blur"/><feComponentTransfer in="blur" color-interpolation-filters="sRGB"><feFuncR type="linear" slope="0" intercept="0.0"/><feFuncG type="linear" slope="0" intercept="0.0"/><feFuncB type="linear" slope="0" intercept="0.0"/><feFuncA type="linear" slope="0.5" intercept="0"/></feComponentTransfer></filter></defs><g id="g2fd4d34a9bb_0_0.12"><path fill="#5f7d95" d="m144.42714 299.87094l-0.5547333 79.045074c0 20.430847 7.039383 40.440796 20.563416 59.05426l0.53559875 -79.045074c-11.037277 -15.189209 -17.789734 -31.181885 -19.855637 -47.614532c-0.4208374 -3.8642578 -0.6886444 -7.7285156 -0.6886444 -11.439728z" fill-rule="evenodd"/></g><g filter="url(#shadowFilter-g2fd4d34a9bb_0_0.13)"><use xlink:href="#g2fd4d34a9bb_0_0.13" transform="matrix(1.0 0.0 0.0 1.0 0.0 2.0)"/></g><defs><filter id="shadowFilter-g2fd4d34a9bb_0_0.13" filterUnits="userSpaceOnUse"><feGaussianBlur in="SourceAlpha" stdDeviation="2.0" result="blur"/><feComponentTransfer in="blur" color-interpolation-filters="sRGB"><feFuncR type="linear" slope="0" intercept="0.0"/><feFuncG type="linear" slope="0" intercept="0.0"/><feFuncB type="linear" slope="0" intercept="0.0"/><feFuncA type="linear" slope="0.5" intercept="0"/></feComponentTransfer></filter></defs><g id="g2fd4d34a9bb_0_0.13"><path fill="#a5b7c6" d="m165.8131 240.39581c-29.247864 39.197357 -27.468887 81.81894 -0.8416748 118.52939l141.55278 -32.291412c-12.28067 -15.7248535 -13.504913 -34.08963 -0.8225403 -51.057922l-139.88857 -35.180054z" fill-rule="evenodd"/></g><g filter="url(#shadowFilter-g2fd4d34a9bb_0_0.14)"><use xlink:href="#g2fd4d34a9bb_0_0.14" transform="matrix(1.0 0.0 0.0 1.0 0.0 2.0)"/></g><defs><filter id="shadowFilter-g2fd4d34a9bb_0_0.14" filterUnits="userSpaceOnUse"><feGaussianBlur in="SourceAlpha" stdDeviation="2.0" result="blur"/><feComponentTransfer in="blur" color-interpolation-filters="sRGB"><feFuncR type="linear" slope="0" intercept="0.0"/><feFuncG type="linear" slope="0" intercept="0.0"/><feFuncB type="linear" slope="0" intercept="0.0"/><feFuncA type="linear" slope="0.5" intercept="0"/></feComponentTransfer></filter></defs><g id="g2fd4d34a9bb_0_0.14"><path fill="#000000" fill-opacity="0.0" d="m161.17505 268.53357l120.73938 0l0 57.97113l-120.73938 0z" fill-rule="evenodd"/><path fill="#ffffff" d="m207.09882 285.04233q2.96875 0 2.96875 3.171875l0 3.09375q0 3.171875 -2.96875 3.171875l-2.71875 0l0 6.09375l-3.359375 0l0 -15.53125l6.078125 0zm-0.390625 6.65625l0 -3.875q0 -0.1875 -0.140625 -0.328125q-0.125 -0.140625 -0.3125 -0.140625l-1.875 0l0 4.8125l1.875 0q0.1875 0 0.3125 -0.140625q0.140625 -0.140625 0.140625 -0.328125zm10.875839 -2.84375l2.71875 0l0 11.71875l-2.71875 0l0 -0.859375q-0.75 1.09375 -2.46875 1.09375l-0.5 0q-2.984375 0 -2.984375 -3.15625l0 -5.859375q0 -3.171875 2.984375 -3.171875l0.5 0q1.71875 0 2.46875 1.109375l0 -0.875zm-0.5 9.171875l0 -6.625q0 -0.1875 -0.140625 -0.328125q-0.125 -0.140625 -0.3125 -0.140625l-1.328125 0q-0.1875 0 -0.328125 0.140625q-0.125 0.140625 -0.125 0.328125l0 6.625q0 0.1875 0.125 0.34375q0.140625 0.140625 0.328125 0.140625l1.328125 0q0.1875 0 0.3125 -0.140625q0.140625 -0.15625 0.140625 -0.34375zm11.347961 -9.171875l2.71875 0l0 11.71875l-2.71875 0l0 -0.859375q-0.75 1.09375 -2.46875 1.09375l-0.5 0q-2.984375 0 -2.984375 -3.15625l0 -5.859375q0 -3.171875 2.984375 -3.171875l0.5 0q1.71875 0 2.46875 1.109375l0 -0.875zm-0.5 9.171875l0 -6.625q0 -0.1875 -0.140625 -0.328125q-0.125 -0.140625 -0.3125 -0.140625l-1.328125 0q-0.1875 0 -0.328125 0.140625q-0.125 0.140625 -0.125 0.328125l0 6.625q0 0.1875 0.125 0.34375q0.140625 0.140625 0.328125 0.140625l1.328125 0q0.1875 0 0.3125 -0.140625q0.140625 -0.15625 0.140625 -0.34375zm14.129211 -8.90625l-3.1875 0l0 -1.21875q0 -0.1875 -0.140625 -0.328125q-0.125 -0.15625 -0.3125 -0.15625l-1.328125 0q-0.1875 0 -0.328125 0.15625q-0.125 0.140625 -0.125 0.328125l0 2.765625q0 0.1875 0.125 0.328125q0.140625 0.140625 0.328125 0.140625l2.171875 0q2.96875 0.046875 2.96875 3.171875l0 3.34375q0 3.15625 -2.96875 3.15625l-2.84375 0q-2.96875 0 -2.96875 -3.15625l0 -1.609375l3.1875 0l0 1.71875q0 0.203125 0.125 0.34375q0.140625 0.140625 0.328125 0.140625l1.5 0q0.1875 0 0.3125 -0.140625q0.140625 -0.140625 0.140625 -0.34375l0 -3.046875q0 -0.1875 -0.140625 -0.328125q-0.125 -0.15625 -0.3125 -0.15625l-2.171875 0q-2.96875 0 -2.96875 -3.15625l0 -3.09375q0 -3.171875 2.96875 -3.171875l2.671875 0q2.96875 0 2.96875 3.171875l0 1.140625z" fill-rule="nonzero"/></g><g filter="url(#shadowFilter-g2fd4d34a9bb_0_0.15)"><use xlink:href="#g2fd4d34a9bb_0_0.15" transform="matrix(1.0 0.0 0.0 1.0 0.0 2.0)"/></g><defs><filter id="shadowFilter-g2fd4d34a9bb_0_0.15" filterUnits="userSpaceOnUse"><feGaussianBlur in="SourceAlpha" stdDeviation="2.0" result="blur"/><feComponentTransfer in="blur" color-interpolation-filters="sRGB"><feFuncR type="linear" slope="0" intercept="0.0"/><feFuncG type="linear" slope="0" intercept="0.0"/><feFuncB type="linear" slope="0" intercept="0.0"/><feFuncA type="linear" slope="0.5" intercept="0"/></feComponentTransfer></filter></defs><g id="g2fd4d34a9bb_0_0.15"><path fill="#5f7d95" d="m164.44028 390.50928l-0.5547333 46.906708c12.969284 18.07785 32.136307 34.77832 56.56372 48.838867l4.2657166 2.4868774l1.5302887 0.8226013l2.888443 1.5303955l1.798111 0.95651245l2.7545319 1.3773499l1.9320068 0.97561646l2.620636 1.2434692l2.0659027 0.95648193l2.6206512 1.2434692l2.218933 1.1095276l2.620636 1.0903931l2.3528442 0.975647l2.620636 1.1095276l2.3337097 0.95651245l2.7545319 1.1095276l0.15304565 0l0.5355835 0.26782227c1.9320068 0.6886902 4.0170593 1.5303955 6.082947 2.2190857l1.7980957 0.6886902c2.199829 0.8225708 4.552643 1.7790833 6.8863525 2.4868774l0.2869568 0.13391113c2.3336792 0.6886902 4.552643 1.3773499 6.886322 2.1999817l1.7981262 0.55474854c2.4867249 0.68865967 4.8204346 1.3773804 7.30719 2.06604c1.5302734 0.55474854 3.175354 0.975647 4.6865234 1.3773193l0.97558594 0.2869873c1.9319763 0.55474854 3.8639832 0.95648193 5.79599 1.5112915l0.55474854 -46.90674l-5.5282288 -1.5303955l-1.090332 -0.26782227l-4.705658 -1.2434692c-2.3337097 -0.68865967 -4.820465 -1.511261 -7.30719 -2.1999512l-1.7980957 -0.55474854c-2.3337097 -0.6886902 -4.552643 -1.5112915 -6.8863525 -2.1999512l-0.28692627 -0.15304565c-2.3337097 -0.8226013 -4.686554 -1.6451721 -6.8863525 -2.486908l-1.7981262 -0.53564453c-2.0658875 -0.8417053 -4.15094 -1.5303955 -6.2168274 -2.3529663l-0.68862915 -0.26782227l-2.6206512 -1.1095581l-2.3337097 -0.97561646l-2.620636 -1.0903931l-2.3528442 -0.975647l-2.620636 -1.0903931l-2.1997986 -1.1095581l-2.6397705 -1.1095276l-2.0659027 -1.1095581l-2.6206512 -1.2243042l-2.0659027 -0.97561646c-0.822525 -0.42086792 -1.7980957 -0.95651245 -2.620636 -1.3773804l-1.7980957 -0.97561646c-0.95643616 -0.53564453 -1.9320068 -1.0904236 -2.888443 -1.511261l-1.530304 -0.8226013l-4.2657166 -2.486908c-24.427414 -14.079651 -43.59442 -30.761017 -56.697617 -48.838837z" fill-rule="evenodd"/></g><g filter="url(#shadowFilter-g2fd4d34a9bb_0_0.16)"><use xlink:href="#g2fd4d34a9bb_0_0.16" transform="matrix(1.0 0.0 0.0 1.0 0.0 2.0)"/></g><defs><filter id="shadowFilter-g2fd4d34a9bb_0_0.16" filterUnits="userSpaceOnUse"><feGaussianBlur in="SourceAlpha" stdDeviation="2.0" result="blur"/><feComponentTransfer in="blur" color-interpolation-filters="sRGB"><feFuncR type="linear" slope="0" intercept="0.0"/><feFuncG type="linear" slope="0" intercept="0.0"/><feFuncB type="linear" slope="0" intercept="0.0"/><feFuncA type="linear" slope="0.5" intercept="0"/></feComponentTransfer></filter></defs><g id="g2fd4d34a9bb_0_0.16"><path fill="#a5b7c6" d="m305.84003 358.08395l-141.55278 32.425323c13.122314 18.07782 32.289337 34.759186 56.56372 48.838837c22.629318 13.104034 49.811264 23.874237 80.857254 31.736664l60.293823 -80.86246c-11.878967 -2.8886108 -23.184052 -7.3076477 -33.800507 -13.237946c-8.550568 -4.8207397 -16.144684 -11.1719055 -22.361511 -18.900421z" fill-rule="evenodd"/></g><g filter="url(#shadowFilter-g2fd4d34a9bb_0_0.17)"><use xlink:href="#g2fd4d34a9bb_0_0.17" transform="matrix(1.0 0.0 0.0 1.0 0.0 2.0)"/></g><defs><filter id="shadowFilter-g2fd4d34a9bb_0_0.17" filterUnits="userSpaceOnUse"><feGaussianBlur in="SourceAlpha" stdDeviation="2.0" result="blur"/><feComponentTransfer in="blur" color-interpolation-filters="sRGB"><feFuncR type="linear" slope="0" intercept="0.0"/><feFuncG type="linear" slope="0" intercept="0.0"/><feFuncB type="linear" slope="0" intercept="0.0"/><feFuncA type="linear" slope="0.5" intercept="0"/></feComponentTransfer></filter></defs><g id="g2fd4d34a9bb_0_0.17"><path fill="#374957" d="m362.00204 390.22232l-60.293823 80.86246l-0.55474854 46.90674l60.84857 -80.57553l0 -47.193665z" fill-rule="evenodd"/></g><g filter="url(#shadowFilter-g2fd4d34a9bb_0_0.18)"><use xlink:href="#g2fd4d34a9bb_0_0.18" transform="matrix(1.0 0.0 0.0 1.0 0.0 2.0)"/></g><defs><filter id="shadowFilter-g2fd4d34a9bb_0_0.18" filterUnits="userSpaceOnUse"><feGaussianBlur in="SourceAlpha" stdDeviation="2.0" result="blur"/><feComponentTransfer in="blur" color-interpolation-filters="sRGB"><feFuncR type="linear" slope="0" intercept="0.0"/><feFuncG type="linear" slope="0" intercept="0.0"/><feFuncB type="linear" slope="0" intercept="0.0"/><feFuncA type="linear" slope="0.5" intercept="0"/></feComponentTransfer></filter></defs><g id="g2fd4d34a9bb_0_0.18"><path fill="#000000" fill-opacity="0.0" d="m214.7181 357.5275l120.739365 0l0 57.97113l-120.739365 0z" fill-rule="evenodd"/><path fill="#ffffff" d="m255.80112 381.0675q1.5625 0.5625 1.5625 2.546875l0 2.78125q0 3.171875 -2.96875 3.171875l-6.171875 0l0 -15.53125l5.96875 0q2.984375 0 2.984375 3.171875l0 1.421875q0 1.90625 -1.375 2.4375zm-2.4375 -4.75l-1.78125 0l0 4.15625l1.78125 0q0.1875 0 0.3125 -0.140625q0.140625 -0.15625 0.140625 -0.34375l0 -3.1875q0 -0.1875 -0.140625 -0.328125q-0.125 -0.15625 -0.3125 -0.15625zm0.640625 10.46875l0 -3.484375q0 -0.1875 -0.140625 -0.328125q-0.125 -0.15625 -0.3125 -0.15625l-1.96875 0l0 4.453125l1.96875 0q0.1875 0 0.3125 -0.140625q0.140625 -0.15625 0.140625 -0.34375zm11.494843 -8.9375l2.71875 0l0 11.71875l-2.71875 0l0 -0.859375q-0.75 1.09375 -2.46875 1.09375l-0.5 0q-2.984375 0 -2.984375 -3.15625l0 -5.859375q0 -3.171875 2.984375 -3.171875l0.5 0q1.71875 0 2.46875 1.109375l0 -0.875zm-0.5 9.171875l0 -6.625q0 -0.1875 -0.140625 -0.328125q-0.125 -0.140625 -0.3125 -0.140625l-1.328125 0q-0.1875 0 -0.328125 0.140625q-0.125 0.140625 -0.125 0.328125l0 6.625q0 0.1875 0.125 0.34375q0.140625 0.140625 0.328125 0.140625l1.328125 0q0.1875 0 0.3125 -0.140625q0.140625 -0.15625 0.140625 -0.34375zm11.347961 -9.171875l2.71875 0l0 11.71875l-2.71875 0l0 -0.859375q-0.75 1.09375 -2.46875 1.09375l-0.5 0q-2.984375 0 -2.984375 -3.15625l0 -5.859375q0 -3.171875 2.984375 -3.171875l0.5 0q1.71875 0 2.46875 1.109375l0 -0.875zm-0.5 9.171875l0 -6.625q0 -0.1875 -0.140625 -0.328125q-0.125 -0.140625 -0.3125 -0.140625l-1.328125 0q-0.1875 0 -0.328125 0.140625q-0.125 0.140625 -0.125 0.328125l0 6.625q0 0.1875 0.125 0.34375q0.140625 0.140625 0.328125 0.140625l1.328125 0q0.1875 0 0.3125 -0.140625q0.140625 -0.15625 0.140625 -0.34375zm14.129211 -8.90625l-3.1875 0l0 -1.21875q0 -0.1875 -0.140625 -0.328125q-0.125 -0.15625 -0.3125 -0.15625l-1.328125 0q-0.1875 0 -0.328125 0.15625q-0.125 0.140625 -0.125 0.328125l0 2.765625q0 0.1875 0.125 0.328125q0.140625 0.140625 0.328125 0.140625l2.171875 0q2.96875 0.046875 2.96875 3.171875l0 3.34375q0 3.15625 -2.96875 3.15625l-2.84375 0q-2.96875 0 -2.96875 -3.15625l0 -1.609375l3.1875 0l0 1.71875q0 0.203125 0.125 0.34375q0.140625 0.140625 0.328125 0.140625l1.5 0q0.1875 0 0.3125 -0.140625q0.140625 -0.140625 0.140625 -0.34375l0 -3.046875q0 -0.1875 -0.140625 -0.328125q-0.125 -0.15625 -0.3125 -0.15625l-2.171875 0q-2.96875 0 -2.96875 -3.15625l0 -3.09375q0 -3.171875 2.96875 -3.171875l2.671875 0q2.96875 0 2.96875 3.171875l0 1.140625zm11.808716 -4.71875l2.578125 0l-6.796875 17.90625l-2.578125 0l6.796875 -17.90625z" fill-rule="nonzero"/><path fill="#ffffff" d="m247.21727 418.3675l-3.359375 0l0 -12.890625q0 -0.1875 -0.140625 -0.328125q-0.125 -0.15625 -0.328125 -0.15625l-1.296875 0q-0.1875 0 -0.328125 0.15625q-0.125 0.140625 -0.125 0.328125l0 12.890625l-3.359375 0l0 -12.59375q0 -3.171875 2.984375 -3.171875l2.96875 0q2.984375 0 2.984375 3.171875l0 12.59375zm10.800583 -8.78125l0 5.859375q0 3.15625 -2.9843597 3.15625l-2.703125 0q-2.984375 0 -2.984375 -3.15625l0 -5.859375q0 -3.171875 2.984375 -3.171875l2.703125 0q2.9843597 0 2.9843597 3.171875zm-3.2187347 6.53125l0 -7.234375q0 -0.1875 -0.140625 -0.328125q-0.125 -0.140625 -0.3125 -0.140625l-1.328125 0q-0.1875 0 -0.328125 0.140625q-0.125 0.140625 -0.125 0.328125l0 7.234375q0 0.1875 0.125 0.328125q0.140625 0.140625 0.328125 0.140625l1.328125 0q0.1875 0 0.3125 -0.140625q0.140625 -0.140625 0.140625 -0.328125zm13.847946 -6.046875l0 2.5625l-8.1875 0l0 -2.5625l8.1875 0zm8.2771 5.75l0 -2.390625l3.1875 0l0 2.015625q0 3.15625 -2.96875 3.15625l-3.03125 0q-2.96875 0 -2.96875 -3.15625l0 -9.671875q0 -3.171875 2.96875 -3.171875l3.03125 0q2.96875 0 2.96875 3.171875l0 1.453125l-3.1875 0l0 -1.875q0 -0.1875 -0.140625 -0.328125q-0.125 -0.140625 -0.3125 -0.140625l-1.515625 0q-0.1875 0 -0.328125 0.140625q-0.125 0.140625 -0.125 0.328125l0 10.46875q0 0.1875 0.125 0.34375q0.140625 0.140625 0.328125 0.140625l1.515625 0q0.1875 0 0.3125 -0.140625q0.140625 -0.15625 0.140625 -0.34375zm13.757599 -6.234375l0 5.859375q0 3.15625 -2.984375 3.15625l-2.703125 0q-2.984375 0 -2.984375 -3.15625l0 -5.859375q0 -3.171875 2.984375 -3.171875l2.703125 0q2.984375 0 2.984375 3.171875zm-3.21875 6.53125l0 -7.234375q0 -0.1875 -0.140625 -0.328125q-0.125 -0.140625 -0.3125 -0.140625l-1.328125 0q-0.1875 0 -0.328125 0.140625q-0.125 0.140625 -0.125 0.328125l0 7.234375q0 0.1875 0.125 0.328125q0.140625 0.140625 0.328125 0.140625l1.328125 0q0.1875 0 0.3125 -0.140625q0.140625 -0.140625 0.140625 -0.328125zm8.879211 -9.703125q1.21875 0 1.96875 0.578125l0 -4.15625l3.21875 0l0 15.53125l-2.71875 0l0 -0.859375q-0.75 1.09375 -2.46875 1.09375l-0.5 0q-2.984375 0 -2.984375 -3.15625l0 -5.859375q0 -3.171875 2.984375 -3.171875l0.5 0zm1.96875 9.40625l0 -6.625q0 -0.1875 -0.140625 -0.328125q-0.125 -0.140625 -0.3125 -0.140625l-1.328125 0q-0.1875 0 -0.328125 0.140625q-0.125 0.140625 -0.125 0.328125l0 6.625q0 0.1875 0.125 0.34375q0.140625 0.140625 0.328125 0.140625l1.328125 0q0.1875 0 0.3125 -0.140625q0.140625 -0.15625 0.140625 -0.34375zm11.082336 -9.40625q2.984375 0 2.984375 3.171875l0 3.796875l-5.453125 0l0 2.4375q0 0.1875 0.125 0.34375q0.140625 0.140625 0.328125 0.140625l1.328125 0q0.1875 0 0.3125 -0.140625q0.140625 -0.15625 0.140625 -0.34375l0 -1.296875l3.21875 0l0 0.921875q0 3.15625 -2.984375 3.15625l-2.703125 0q-2.984375 0 -2.984375 -3.15625l0 -5.859375q0 -3.171875 2.984375 -3.171875l2.703125 0zm-2.46875 4.84375l2.234375 0l0 -2.15625q0 -0.1875 -0.140625 -0.328125q-0.125 -0.15625 -0.3125 -0.15625l-1.328125 0q-0.1875 0 -0.328125 0.15625q-0.125 0.140625 -0.125 0.328125l0 2.15625z" fill-rule="nonzero"/></g><g filter="url(#shadowFilter-g2fd4d34a9bb_0_0.19)"><use xlink:href="#g2fd4d34a9bb_0_0.19" transform="matrix(1.0 0.0 0.0 1.0 0.0 2.0)"/></g><defs><filter id="shadowFilter-g2fd4d34a9bb_0_0.19" filterUnits="userSpaceOnUse"><feGaussianBlur in="SourceAlpha" stdDeviation="2.0" result="blur"/><feComponentTransfer in="blur" color-interpolation-filters="sRGB"><feFuncR type="linear" slope="0" intercept="0.0"/><feFuncG type="linear" slope="0" intercept="0.0"/><feFuncB type="linear" slope="0" intercept="0.0"/><feFuncA type="linear" slope="0.5" intercept="0"/></feComponentTransfer></filter></defs><g id="g2fd4d34a9bb_0_0.19"><path fill="#a5b7c6" d="m451.02954 422.6432c-14.690887 3.7112122 -29.70697 5.5668335 -44.723022 5.5668335c-14.576111 0 -29.152222 -1.7599487 -43.441406 -5.2798767l-60.293823 80.977234c34.24048 8.359772 69.18869 12.530121 104.13693 12.530121c33.762238 0 67.524506 -3.9025269 100.598114 -11.688416l-56.276794 -82.105896z" fill-rule="evenodd"/></g><g filter="url(#shadowFilter-g2fd4d34a9bb_0_0.20)"><use xlink:href="#g2fd4d34a9bb_0_0.20" transform="matrix(1.0 0.0 0.0 1.0 0.0 2.0)"/></g><defs><filter id="shadowFilter-g2fd4d34a9bb_0_0.20" filterUnits="userSpaceOnUse"><feGaussianBlur in="SourceAlpha" stdDeviation="2.0" result="blur"/><feComponentTransfer in="blur" color-interpolation-filters="sRGB"><feFuncR type="linear" slope="0" intercept="0.0"/><feFuncG type="linear" slope="0" intercept="0.0"/><feFuncB type="linear" slope="0" intercept="0.0"/><feFuncA type="linear" slope="0.5" intercept="0"/></feComponentTransfer></filter></defs><g id="g2fd4d34a9bb_0_0.20"><path fill="#374957" d="m302.01654 504.0604l-0.5355835 14.749237c2.4675903 0.68865967 4.9543457 1.2434692 7.4410706 1.7982178l2.3528442 0.55474854l5.241272 1.1095581l1.3772583 0.26782227l1.5112 0.26782227l3.175354 0.68865967c1.1094666 0.15307617 2.1997986 0.42089844 3.3092651 0.55474854l3.1753845 0.5548096l3.3092651 0.68865967l3.1753845 0.42089844l3.3092651 0.55474854l3.1753845 0.55474854l1.7980957 0.26782227l1.5111694 0.13391113l3.0414734 0.42089844l3.4431763 0.4208374l3.0414734 0.4017334l3.4431763 0.4208374l3.0414734 0.26782227l3.4431763 0.2869873l3.0414734 0.26776123l1.3772583 0.13391113c0.68865967 0 1.3772888 0.13391113 2.065918 0.13391113l3.0414734 0.2869873l3.4431763 0.26782227l3.0414734 0.15301514l3.4431763 0.13391113l3.0414734 0.13391113l3.4431763 0.13391113l3.0414734 0.13391113l29.381744 0l3.9979248 -0.26782227l2.8884277 -0.13391113l4.0170593 -0.13391113l2.8884277 -0.28692627l3.9979248 -0.26782227l2.7545166 -0.2869873l4.284851 -0.26776123l2.065918 -0.2869873l0.42080688 0c2.620636 -0.13391113 5.1073914 -0.53564453 7.594116 -0.8225708l1.7789917 -0.13391113c1.9320068 -0.26782227 4.017029 -0.5548096 5.929901 -0.8225708l2.3528442 -0.2869873c2.0658875 -0.26782227 3.9978943 -0.55474854 5.929901 -0.95648193l1.6642151 -0.13391113c2.4867249 -0.4208374 4.9543457 -0.975647 7.4410706 -1.3964844l0.4208374 0l0.8225403 -0.13391113c3.596222 -0.68865967 7.173279 -1.3773804 10.63559 -2.06604l0.68862915 -0.13391113c3.710968 -0.8225708 7.30719 -1.6643066 10.884277 -2.4868774l0.554718 -14.902283l0 0c-3.4431763 0.6886902 -7.173279 1.3773499 -10.750366 2.1999512l-0.68862915 0.15304565c-3.5961914 0.8225708 -7.173279 1.511261 -10.76947 2.06604l-1.1094666 0.26782227c-2.4867554 0.4208374 -4.954376 0.8417053 -7.441101 1.2434387c-0.554718 0.13391113 -1.1094666 0.13391113 -1.6641846 0.2869568l-5.9299316 0.8226013l-2.3337097 0.4017334l-6.082947 0.7077637l-1.64505 0.26782227c-2.4867554 0.26782227 -5.1073914 0.5548096 -7.594116 0.82263184l-2.4867554 0.13391113l-4.2657166 0.4208374l-2.7736511 0.28692627l-4.1318054 0.26782227l-2.754547 0.13391113l-4.15094 0.2869873l-2.754547 0.26782227l-4.1318054 0.13391113l-2.9075623 0.13391113l-29.515686 0l-3.4623108 -0.13391113l-3.0223389 -0.13391113l-3.4623108 -0.26782227l-3.0223389 -0.15307617l-3.4431763 -0.26782227l-3.0414734 -0.13391113l-3.4431763 -0.28692627l-3.0414734 -0.26782227l-3.4431458 -0.4208374l-3.0414734 -0.26782227l-3.4431763 -0.42089844l-3.0414734 -0.26782227l-3.4431763 -0.4208374l-3.0414734 -0.4208374l-3.3092957 -0.53567505l-3.3092651 -0.4208374l-3.1753845 -0.55477905l-3.3092651 -0.55477905l-3.175354 -0.55477905l-3.3092957 -0.535614l-3.175354 -0.6886902l-3.3092957 -0.55477905l-2.7545166 -0.68865967l-5.2604065 -1.1095581l-2.3337097 -0.55474854c-2.4867554 -0.55477905 -4.97348 -1.1095581 -7.4602356 -1.6452026z" fill-rule="evenodd"/></g><g filter="url(#shadowFilter-g2fd4d34a9bb_0_0.21)"><use xlink:href="#g2fd4d34a9bb_0_0.21" transform="matrix(1.0 0.0 0.0 1.0 0.0 2.0)"/></g><defs><filter id="shadowFilter-g2fd4d34a9bb_0_0.21" filterUnits="userSpaceOnUse"><feGaussianBlur in="SourceAlpha" stdDeviation="2.0" result="blur"/><feComponentTransfer in="blur" color-interpolation-filters="sRGB"><feFuncR type="linear" slope="0" intercept="0.0"/><feFuncG type="linear" slope="0" intercept="0.0"/><feFuncB type="linear" slope="0" intercept="0.0"/><feFuncA type="linear" slope="0.5" intercept="0"/></feComponentTransfer></filter></defs><g id="g2fd4d34a9bb_0_0.21"><path fill="#000000" fill-opacity="0.0" d="m344.02307 442.73602l120.73938 0l0 57.97113l-120.73938 0z" fill-rule="evenodd"/><path fill="#ffffff" d="m375.58124 472.22916l0 -2.390625l3.1875 0l0 2.015625q0 3.15625 -2.96875 3.15625l-3.03125 0q-2.96875 0 -2.96875 -3.15625l0 -9.671875q0 -3.171875 2.96875 -3.171875l3.03125 0q2.96875 0 2.96875 3.171875l0 1.453125l-3.1875 0l0 -1.875q0 -0.1875 -0.140625 -0.328125q-0.125 -0.140625 -0.3125 -0.140625l-1.515625 0q-0.1875 0 -0.328125 0.140625q-0.125 0.140625 -0.125 0.328125l0 10.46875q0 0.1875 0.125 0.34375q0.140625 0.140625 0.328125 0.140625l1.515625 0q0.1875 0 0.3125 -0.140625q0.140625 -0.15625 0.140625 -0.34375zm13.757599 -6.234375l0 5.859375q0 3.15625 -2.984375 3.15625l-2.703125 0q-2.984375 0 -2.984375 -3.15625l0 -5.859375q0 -3.171875 2.984375 -3.171875l2.703125 0q2.984375 0 2.984375 3.171875zm-3.21875 6.53125l0 -7.234375q0 -0.1875 -0.140625 -0.328125q-0.125 -0.140625 -0.3125 -0.140625l-1.328125 0q-0.1875 0 -0.328125 0.140625q-0.125 0.140625 -0.125 0.328125l0 7.234375q0 0.1875 0.125 0.328125q0.140625 0.140625 0.328125 0.140625l1.328125 0q0.1875 0 0.3125 -0.140625q0.140625 -0.140625 0.140625 -0.328125zm8.613586 2.25l-3.21875 0l0 -11.71875l2.9375 0l0 0.609375q0.734375 -0.84375 2.25 -0.84375l0.5 0q2.984375 0 2.984375 3.171875l0 8.78125l-3.21875 0l0 -9.171875q0 -0.1875 -0.140625 -0.328125q-0.125 -0.140625 -0.3125 -0.140625l-1.328125 0q-0.1875 0 -0.328125 0.140625q-0.125 0.140625 -0.125 0.328125l0 9.171875zm16.301086 -7.109375l-3.21875 0l0 -2.0625q0 -0.1875 -0.140625 -0.328125q-0.125 -0.140625 -0.3125 -0.140625l-1.328125 0q-0.1875 0 -0.328125 0.140625q-0.125 0.140625 -0.125 0.328125l0 6.625q0 0.1875 0.125 0.34375q0.140625 0.140625 0.328125 0.140625l1.328125 0q0.1875 0 0.3125 -0.140625q0.140625 -0.15625 0.140625 -0.34375l0 -2.0625l3.21875 0l0 1.6875q0 3.15625 -2.984375 3.15625l-2.703125 0q-2.984375 0 -2.984375 -3.15625l0 -5.859375q0 -3.171875 2.984375 -3.171875l2.703125 0q2.984375 0 2.984375 3.171875l0 1.671875zm7.7196045 -4.84375q2.984375 0 2.984375 3.171875l0 3.796875l-5.453125 0l0 2.4375q0 0.1875 0.125 0.34375q0.140625 0.140625 0.328125 0.140625l1.328125 0q0.1875 0 0.3125 -0.140625q0.140625 -0.15625 0.140625 -0.34375l0 -1.296875l3.21875 0l0 0.921875q0 3.15625 -2.984375 3.15625l-2.703125 0q-2.984375 0 -2.984375 -3.15625l0 -5.859375q0 -3.171875 2.984375 -3.171875l2.703125 0zm-2.46875 4.84375l2.234375 0l0 -2.15625q0 -0.1875 -0.140625 -0.328125q-0.125 -0.15625 -0.3125 -0.15625l-1.328125 0q-0.1875 0 -0.328125 0.15625q-0.125 0.140625 -0.125 0.328125l0 2.15625zm12.908722 7.34375l-0.5 0q-1.21875 0 -1.96875 -0.578125l0 4.15625l-3.21875 0l0 -15.53125l2.71875 0l0 0.875q0.734375 -1.109375 2.46875 -1.109375l0.5 0q2.984375 0 2.984375 3.171875l0 5.859375q0 3.15625 -2.984375 3.15625zm-2.46875 -9.40625l0 6.625q0 0.1875 0.125 0.34375q0.140625 0.140625 0.328125 0.140625l1.328125 0q0.1875 0 0.3125 -0.140625q0.140625 -0.15625 0.140625 -0.34375l0 -6.625q0 -0.1875 -0.140625 -0.328125q-0.125 -0.140625 -0.3125 -0.140625l-1.328125 0q-0.1875 0 -0.328125 0.140625q-0.125 0.140625 -0.125 0.328125zm11.910461 7.328125l0.953125 0l0 2.078125l-2.25 0q-2.984375 0 -2.984375 -3.15625l0 -11.328125l3.21875 0l0 2.53125l2.015625 0l0 2.328125l-2.015625 0l0 6.390625q0 0.671875 0.265625 0.921875q0.265625 0.234375 0.796875 0.234375z" fill-rule="nonzero"/></g><g filter="url(#shadowFilter-g2fd4d34a9bb_0_0.22)"><use xlink:href="#g2fd4d34a9bb_0_0.22" transform="matrix(1.0 0.0 0.0 1.0 0.0 2.0)"/></g><defs><filter id="shadowFilter-g2fd4d34a9bb_0_0.22" filterUnits="userSpaceOnUse"><feGaussianBlur in="SourceAlpha" stdDeviation="2.0" result="blur"/><feComponentTransfer in="blur" color-interpolation-filters="sRGB"><feFuncR type="linear" slope="0" intercept="0.0"/><feFuncG type="linear" slope="0" intercept="0.0"/><feFuncB type="linear" slope="0" intercept="0.0"/><feFuncA type="linear" slope="0.5" intercept="0"/></feComponentTransfer></filter></defs><g id="g2fd4d34a9bb_0_0.22"><path fill="#374957" d="m448.8412 106.8601l-0.55474854 212.35715c1.7789917 0.4864502 3.3092957 0.99609375 4.820465 1.6679077c2.0658875 0.67178345 3.9978943 1.3435974 6.0638123 2.1775513l1.530304 0.6486206c1.7980957 0.67178345 3.577057 1.5057373 5.375183 2.3396912l0.28692627 0.18533325l2.4675903 1.1582642l1.6642151 0.83395386c0.8225403 0.50964355 1.6450806 0.99612427 2.4867249 1.3435974l1.5111694 0.99612427c0.97558594 0.50961304 1.7981262 0.99609375 2.6206665 1.5057373l1.2433472 0.83395386c1.2433777 0.67178345 2.4867554 1.5057373 3.596222 2.3396912c11.993713 8.362732 20.831207 18.555481 26.340271 29.396912l0.4208374 -212.35716c-5.5281982 -11.026733 -14.346558 -21.219498 -26.359406 -29.559036c-1.2433777 -0.83395386 -2.3337097 -1.6679077 -3.5770874 -2.3397064l-1.2433777 -0.6717987c-0.8416443 -0.6717987 -1.6641846 -1.1582718 -2.620636 -1.6679077l-1.530304 -0.83395386l-2.4675903 -1.3435898l-1.6642151 -0.83395386l-2.4867249 -1.3435974l-0.26782227 0c-1.6641846 -0.83395386 -3.4622803 -1.6679077 -5.394287 -2.5018616l-1.5111694 -0.48647308c-1.9320068 -0.83395386 -3.9979248 -1.6910706 -5.9299316 -2.3397064c-1.6641846 -0.5096359 -3.175354 -1.0192719 -4.8204346 -1.5057449z" fill-rule="evenodd"/></g><g filter="url(#shadowFilter-g2fd4d34a9bb_0_0.23)"><use xlink:href="#g2fd4d34a9bb_0_0.23" transform="matrix(1.0 0.0 0.0 1.0 0.0 2.0)"/></g><defs><filter id="shadowFilter-g2fd4d34a9bb_0_0.23" filterUnits="userSpaceOnUse"><feGaussianBlur in="SourceAlpha" stdDeviation="2.0" result="blur"/><feComponentTransfer in="blur" color-interpolation-filters="sRGB"><feFuncR type="linear" slope="0" intercept="0.0"/><feFuncG type="linear" slope="0" intercept="0.0"/><feFuncB type="linear" slope="0" intercept="0.0"/><feFuncA type="linear" slope="0.5" intercept="0"/></feComponentTransfer></filter></defs><g id="g2fd4d34a9bb_0_0.23"><path fill="#a5b7c6" d="m508.84808 8.777828l-60.159943 97.89694c11.725952 3.521141 23.05017 8.872345 33.666626 16.05362c11.859833 8.339539 20.831207 18.532303 26.225525 29.396881l141.53366 -39.080017c-13.10321 -24.578484 -33.647522 -47.11841 -60.427734 -65.836044c-22.61023 -15.868294 -49.658264 -29.072567 -80.838135 -38.431385z" fill-rule="evenodd"/></g><g filter="url(#shadowFilter-g2fd4d34a9bb_0_0.24)"><use xlink:href="#g2fd4d34a9bb_0_0.24" transform="matrix(1.0 0.0 0.0 1.0 0.0 2.0)"/></g><defs><filter id="shadowFilter-g2fd4d34a9bb_0_0.24" filterUnits="userSpaceOnUse"><feGaussianBlur in="SourceAlpha" stdDeviation="2.0" result="blur"/><feComponentTransfer in="blur" color-interpolation-filters="sRGB"><feFuncR type="linear" slope="0" intercept="0.0"/><feFuncG type="linear" slope="0" intercept="0.0"/><feFuncB type="linear" slope="0" intercept="0.0"/><feFuncA type="linear" slope="0.5" intercept="0"/></feComponentTransfer></filter></defs><g id="g2fd4d34a9bb_0_0.24"><path fill="#435d74" d="m650.11395 113.04526l-141.53366 39.080017l-0.4208374 212.35715l141.55276 -39.080017l0.4017334 -212.35715z" fill-rule="evenodd"/></g><g filter="url(#shadowFilter-g2fd4d34a9bb_0_0.25)"><use xlink:href="#g2fd4d34a9bb_0_0.25" transform="matrix(1.0 0.0 0.0 1.0 0.0 2.0)"/></g><defs><filter id="shadowFilter-g2fd4d34a9bb_0_0.25" filterUnits="userSpaceOnUse"><feGaussianBlur in="SourceAlpha" stdDeviation="2.0" result="blur"/><feComponentTransfer in="blur" color-interpolation-filters="sRGB"><feFuncR type="linear" slope="0" intercept="0.0"/><feFuncG type="linear" slope="0" intercept="0.0"/><feFuncB type="linear" slope="0" intercept="0.0"/><feFuncA type="linear" slope="0.5" intercept="0"/></feComponentTransfer></filter></defs><g id="g2fd4d34a9bb_0_0.25"><path fill="#000000" fill-opacity="0.0" d="m487.0777 47.861286l120.73938 0l0 87.86078l-120.73938 0z" fill-rule="evenodd"/><path fill="#ffffff" d="m502.1908 79.90128l-3.359375 0l0 -12.59375q0 -3.171875 2.984375 -3.171875l1.765625 0q1.765625 0 2.5 1.15625q0.703125 -1.15625 2.5 -1.15625l1.78125 0q2.96875 0 2.96875 3.171875l0 12.59375l-3.359375 0l0 -12.890625q0 -0.1875 -0.140625 -0.328125q-0.125 -0.15625 -0.3125 -0.15625l-1.296875 0q-0.1875 0 -0.328125 0.15625q-0.125 0.140625 -0.125 0.328125l0 12.890625l-3.359375 0l0 -12.890625q0 -0.1875 -0.140625 -0.328125q-0.125 -0.15625 -0.328125 -0.15625l-1.296875 0q-0.1875 0 -0.328125 0.15625q-0.125 0.140625 -0.125 0.328125l0 12.890625zm18.77594 -11.71875l3.21875 0l0 11.71875l-2.9375 0l0 -0.59375q-0.734375 0.828125 -2.25 0.828125l-0.5 0q-2.984375 0 -2.984375 -3.15625l0 -8.796875l3.21875 0l0 9.171875q0 0.1875 0.125 0.34375q0.140625 0.140625 0.328125 0.140625l1.328125 0q0.1875 0 0.3125 -0.140625q0.140625 -0.15625 0.140625 -0.34375l0 -9.171875zm8.613586 11.71875l-3.21875 0l0 -15.53125l3.21875 0l0 15.53125zm6.4384766 -1.84375l0.953125 0l0 2.078125l-2.25 0q-2.984375 0 -2.984375 -3.15625l0 -11.328125l3.21875 0l0 2.53125l2.015625 0l0 2.328125l-2.015625 0l0 6.390625q0 0.671875 0.265625 0.921875q0.265625 0.234375 0.796875 0.234375zm5.9119873 -11.328125q-0.515625 0.5 -1.234375 0.5q-0.71875 0 -1.25 -0.515625q-0.53125 -0.515625 -0.53125 -1.25q0 -0.734375 0.53125 -1.25q0.53125 -0.5156212 1.25 -0.5156212q0.71875 0 1.234375 0.5156212q0.515625 0.515625 0.515625 1.265625q0 0.734375 -0.515625 1.25zm-2.84375 13.171875l0 -11.71875l3.21875 0l0 11.71875l-3.21875 0zm16.220764 -2.546875l0 -2.390625l3.1875 0l0 2.015625q0 3.15625 -2.96875 3.15625l-3.03125 0q-2.96875 0 -2.96875 -3.15625l0 -9.671875q0 -3.171875 2.96875 -3.171875l3.03125 0q2.96875 0 2.96875 3.171875l0 1.453125l-3.1875 0l0 -1.875q0 -0.1875 -0.140625 -0.328125q-0.125 -0.140625 -0.3125 -0.140625l-1.515625 0q-0.1875 0 -0.328125 0.140625q-0.125 0.140625 -0.125 0.328125l0 10.46875q0 0.1875 0.125 0.34375q0.140625 0.140625 0.328125 0.140625l1.515625 0q0.1875 0 0.3125 -0.140625q0.140625 -0.15625 0.140625 -0.34375zm8.304443 2.546875l-3.21875 0l0 -15.53125l3.21875 0l0 15.53125zm10.829102 -8.78125l0 5.859375q0 3.15625 -2.984375 3.15625l-2.703125 0q-2.984375 0 -2.984375 -3.15625l0 -5.859375q0 -3.171875 2.984375 -3.171875l2.703125 0q2.984375 0 2.984375 3.171875zm-3.21875 6.53125l0 -7.234375q0 -0.1875 -0.140625 -0.328125q-0.125 -0.140625 -0.3125 -0.140625l-1.328125 0q-0.1875 0 -0.328125 0.140625q-0.125 0.140625 -0.125 0.328125l0 7.234375q0 0.1875 0.125 0.328125q0.140625 0.140625 0.328125 0.140625l1.328125 0q0.1875 0 0.3125 -0.140625q0.140625 -0.140625 0.140625 -0.328125zm10.847961 -9.46875l3.21875 0l0 11.71875l-2.9375 0l0 -0.59375q-0.734375 0.828125 -2.25 0.828125l-0.5 0q-2.984375 0 -2.984375 -3.15625l0 -8.796875l3.21875 0l0 9.171875q0 0.1875 0.125 0.34375q0.140625 0.140625 0.328125 0.140625l1.328125 0q0.1875 0 0.3125 -0.140625q0.140625 -0.15625 0.140625 -0.34375l0 -9.171875zm8.879211 -0.234375q1.21875 0 1.96875 0.578125l0 -4.15625l3.21875 0l0 15.53125l-2.71875 0l0 -0.859375q-0.75 1.09375 -2.46875 1.09375l-0.5 0q-2.984375 0 -2.984375 -3.15625l0 -5.859375q0 -3.171875 2.984375 -3.171875l0.5 0zm1.96875 9.40625l0 -6.625q0 -0.1875 -0.140625 -0.328125q-0.125 -0.140625 -0.3125 -0.140625l-1.328125 0q-0.1875 0 -0.328125 0.140625q-0.125 0.140625 -0.125 0.328125l0 6.625q0 0.1875 0.125 0.34375q0.140625 0.140625 0.328125 0.140625l1.328125 0q0.1875 0 0.3125 -0.140625q0.140625 -0.15625 0.140625 -0.34375z" fill-rule="nonzero"/></g><g filter="url(#shadowFilter-g2fd4d34a9bb_0_0.26)"><use xlink:href="#g2fd4d34a9bb_0_0.26" transform="matrix(1.0 0.0 0.0 1.0 0.0 2.0)"/></g><defs><filter id="shadowFilter-g2fd4d34a9bb_0_0.26" filterUnits="userSpaceOnUse"><feGaussianBlur in="SourceAlpha" stdDeviation="1.5" result="blur"/><feComponentTransfer in="blur" color-interpolation-filters="sRGB"><feFuncR type="linear" slope="0" intercept="0.0"/><feFuncG type="linear" slope="0" intercept="0.0"/><feFuncB type="linear" slope="0" intercept="0.0"/><feFuncA type="linear" slope="0.5" intercept="0"/></feComponentTransfer></filter></defs><g id="g2fd4d34a9bb_0_0.26"><path fill="#000000" fill-opacity="0.0" d="m666.6897 113.52873l0 0c6.2158203 0 11.254761 0.41989136 11.254761 0.9378586l0 212.22266c0 0.51797485 -5.0389404 0.9378662 -11.254761 0.9378662z" fill-rule="evenodd"/><path fill="#000000" fill-opacity="0.0" d="m666.6897 113.52873l0 0c6.2158203 0 11.254761 0.41989136 11.254761 0.9378586l0 212.22266c0 0.51797485 -5.0389404 0.9378662 -11.254761 0.9378662" fill-rule="evenodd"/><path stroke="#ffffff" stroke-width="3.0" stroke-linejoin="round" stroke-linecap="butt" d="m666.6897 113.52873l0 0c6.2158203 0 11.254761 0.41989136 11.254761 0.9378586l0 212.22266c0 0.51797485 -5.0389404 0.9378662 -11.254761 0.9378662" fill-rule="evenodd"/></g><path fill="#000000" fill-opacity="0.0" d="m685.2598 188.29396l188.50397 0l0 101.511826l-188.50397 0z" fill-rule="evenodd"/><path fill="#000000" d="m705.4786 215.87459q2.0 0.71875 2.0 3.25l0 3.5625q0 4.046875 -3.8125 4.046875l-7.875 0l0 -19.828125l7.640625 0q3.796875 0 3.796875 4.046875l0 1.796875q0 2.453125 -1.75 3.125zm-3.125 -6.0625l-2.265625 0l0 5.296875l2.265625 0q0.25 0 0.40625 -0.171875q0.171875 -0.1875 0.171875 -0.4375l0 -4.078125q0 -0.234375 -0.171875 -0.421875q-0.15625 -0.1875 -0.40625 -0.1875zm0.828125 13.359375l0 -4.4375q0 -0.25 -0.171875 -0.421875q-0.171875 -0.1875 -0.40625 -0.1875l-2.515625 0l0 5.671875l2.515625 0q0.234375 0 0.40625 -0.1875q0.171875 -0.1875 0.171875 -0.4375zm14.310608 -16.265625l4.296875 0l0 16.09375q0 4.046875 -3.796875 4.046875l-3.8125 0q-3.796875 0 -3.796875 -4.046875l0 -16.09375l4.296875 0l0 16.453125q0 0.25 0.15625 0.4375q0.171875 0.171875 0.421875 0.171875l1.65625 0q0.25 0 0.40625 -0.171875q0.171875 -0.1875 0.171875 -0.4375l0 -16.453125zm18.238403 5.203125l-4.0625 0l0 -1.5625q0 -0.25 -0.171875 -0.421875q-0.171875 -0.1875 -0.421875 -0.1875l-1.6875 0q-0.234375 0 -0.40625 0.1875q-0.171875 0.171875 -0.171875 0.421875l0 3.53125q0 0.234375 0.171875 0.421875q0.171875 0.1875 0.40625 0.1875l2.765625 0q3.796875 0.0625 3.796875 4.046875l0 4.265625q0 4.046875 -3.796875 4.046875l-3.625 0q-3.796875 0 -3.796875 -4.046875l0 -2.0625l4.078125 0l0 2.203125q0 0.25 0.171875 0.4375q0.171875 0.1875 0.40625 0.1875l1.90625 0q0.25 0 0.40625 -0.1875q0.171875 -0.1875 0.171875 -0.4375l0 -3.890625q0 -0.234375 -0.171875 -0.421875q-0.15625 -0.1875 -0.40625 -0.1875l-2.765625 0q-3.796875 0 -3.796875 -4.046875l0 -3.953125q0 -4.046875 3.796875 -4.046875l3.40625 0q3.796875 0 3.796875 4.046875l0 1.46875zm7.3374634 -5.203125l0 19.828125l-4.296875 0l0 -19.828125l4.296875 0zm14.558289 19.828125l-4.296875 0l0 -16.46875q0 -0.234375 -0.171875 -0.421875q-0.15625 -0.1875 -0.40625 -0.1875l-1.65625 0q-0.25 0 -0.421875 0.1875q-0.15625 0.1875 -0.15625 0.421875l0 16.46875l-4.296875 0l0 -16.09375q0 -4.046875 3.796875 -4.046875l3.8125 0q3.796875 0 3.796875 4.046875l0 16.09375zm7.177063 -3.5625l4.75 0l0 3.5625l-9.046875 0l0 -19.828125l9.046875 0l0 3.484375l-4.75 0l0 4.65625l4.4375 0l0 3.375l-4.4375 0l0 4.75zm18.22992 -11.0625l-4.0625 0l0 -1.5625q0 -0.25 -0.171875 -0.421875q-0.171875 -0.1875 -0.421875 -0.1875l-1.6875 0q-0.234375 0 -0.40625 0.1875q-0.171875 0.171875 -0.171875 0.421875l0 3.53125q0 0.234375 0.171875 0.421875q0.171875 0.1875 0.40625 0.1875l2.765625 0q3.796875 0.0625 3.796875 4.046875l0 4.265625q0 4.046875 -3.796875 4.046875l-3.625 0q-3.796875 0 -3.796875 -4.046875l0 -2.0625l4.078125 0l0 2.203125q0 0.25 0.171875 0.4375q0.171875 0.1875 0.40625 0.1875l1.90625 0q0.25 0 0.40625 -0.1875q0.171875 -0.1875 0.171875 -0.4375l0 -3.890625q0 -0.234375 -0.171875 -0.421875q-0.15625 -0.1875 -0.40625 -0.1875l-2.765625 0q-3.796875 0 -3.796875 -4.046875l0 -3.953125q0 -4.046875 3.796875 -4.046875l3.40625 0q3.796875 0 3.796875 4.046875l0 1.46875zm14.040588 0l-4.0625 0l0 -1.5625q0 -0.25 -0.171875 -0.421875q-0.171875 -0.1875 -0.421875 -0.1875l-1.6875 0q-0.234375 0 -0.40625 0.1875q-0.171875 0.171875 -0.171875 0.421875l0 3.53125q0 0.234375 0.171875 0.421875q0.171875 0.1875 0.40625 0.1875l2.765625 0q3.796875 0.0625 3.796875 4.046875l0 4.265625q0 4.046875 -3.796875 4.046875l-3.625 0q-3.796875 0 -3.796875 -4.046875l0 -2.0625l4.078125 0l0 2.203125q0 0.25 0.171875 0.4375q0.171875 0.1875 0.40625 0.1875l1.90625 0q0.25 0 0.40625 -0.1875q0.171875 -0.1875 0.171875 -0.4375l0 -3.890625q0 -0.234375 -0.171875 -0.421875q-0.15625 -0.1875 -0.40625 -0.1875l-2.765625 0q-3.796875 0 -3.796875 -4.046875l0 -3.953125q0 -4.046875 3.796875 -4.046875l3.40625 0q3.796875 0 3.796875 4.046875l0 1.46875z" fill-rule="nonzero"/><path fill="#000000" d="m700.08795 255.40895l0 8.125015l-4.296875 0l0 -19.82814l7.640625 0q3.796875 0 3.796875 4.046875l0 2.296875q0 2.453125 -1.75 3.125q1.53125 0.546875 1.53125 2.515625l0 7.8437653l-4.28125 0l0 -7.515625q0 -0.60939026 -0.59375 -0.60939026l-2.046875 0zm0 -8.796875l0 5.796875l2.265625 0q0.25 0 0.40625 -0.1875q0.171875 -0.1875 0.171875 -0.421875l0 -4.578125q0 -0.234375 -0.171875 -0.421875q-0.15625 -0.1875 -0.40625 -0.1875l-2.265625 0zm14.193909 13.35939l4.75 0l0 3.5625l-9.046875 0l0 -19.82814l9.046875 0l0 3.484375l-4.75 0l0 4.65625l4.4375 0l0 3.375l-4.4375 0l0 4.7500153zm15.104919 -16.57814q3.8125 0 3.8125 4.046875l0 12.35939q0 4.046875 -3.8125 4.046875l-0.0625 0l0 1.53125q0 0.453125 0.46875 0.453125l0.984375 0l0 3.0l-1.8125 0q-1.5 0 -2.34375 -0.90625q-0.84375 -0.890625 -0.84375 -2.03125l0 -2.046875l-0.46875 0q-3.796875 0 -3.796875 -4.046875l0 -12.35939q0 -4.046875 3.796875 -4.046875l4.078125 0zm-3.578125 3.53125l0 13.35939q0 0.25 0.15625 0.4375q0.171875 0.171875 0.421875 0.171875l1.9375 0q0.234375 0 0.40625 -0.171875q0.171875 -0.1875 0.171875 -0.4375l0 -13.35939q0 -0.25 -0.171875 -0.4375q-0.171875 -0.1875 -0.40625 -0.1875l-1.9375 0q-0.25 0 -0.421875 0.1875q-0.15625 0.1875 -0.15625 0.4375zm17.343018 -3.21875l4.296875 0l0 16.093765q0 4.046875 -3.796875 4.046875l-3.8125 0q-3.796875 0 -3.796875 -4.046875l0 -16.093765l4.296875 0l0 16.45314q0 0.25 0.15625 0.4375q0.171875 0.171875 0.421875 0.171875l1.65625 0q0.25 0 0.40625 -0.171875q0.171875 -0.1875 0.171875 -0.4375l0 -16.45314zm11.535217 0l0 19.82814l-4.296875 0l0 -19.82814l4.296875 0zm7.4801636 11.703125l0 8.125015l-4.296875 0l0 -19.82814l7.640625 0q3.796875 0 3.796875 4.046875l0 2.296875q0 2.453125 -1.75 3.125q1.53125 0.546875 1.53125 2.515625l0 7.8437653l-4.28125 0l0 -7.515625q0 -0.60939026 -0.59375 -0.60939026l-2.046875 0zm0 -8.796875l0 5.796875l2.265625 0q0.25 0 0.40625 -0.1875q0.171875 -0.1875 0.171875 -0.421875l0 -4.578125q0 -0.234375 -0.171875 -0.421875q-0.15625 -0.1875 -0.40625 -0.1875l-2.265625 0zm14.193909 13.35939l4.75 0l0 3.5625l-9.046875 0l0 -19.82814l9.046875 0l0 3.484375l-4.75 0l0 4.65625l4.4375 0l0 3.375l-4.4375 0l0 4.7500153zm11.495483 3.5625l-4.296875 0l0 -16.093765q0 -4.046875 3.796875 -4.046875l2.28125 0q2.234375 0 3.1875 1.46875q0.890625 -1.46875 3.1875 -1.46875l2.265625 0q3.796875 0 3.796875 4.046875l0 16.093765l-4.28125 0l0 -16.468765q0 -0.234375 -0.171875 -0.421875q-0.171875 -0.1875 -0.421875 -0.1875l-1.65625 0q-0.234375 0 -0.40625 0.1875q-0.171875 0.1875 -0.171875 0.421875l0 16.468765l-4.296875 0l0 -16.468765q0 -0.234375 -0.171875 -0.421875q-0.15625 -0.1875 -0.40625 -0.1875l-1.65625 0q-0.25 0 -0.421875 0.1875q-0.15625 0.1875 -0.15625 0.421875l0 16.468765zm21.460083 -3.5625l4.75 0l0 3.5625l-9.046875 0l0 -19.82814l9.046875 0l0 3.484375l-4.75 0l0 4.65625l4.4375 0l0 3.375l-4.4375 0l0 4.7500153zm18.604858 3.5625l-4.296875 0l0 -16.468765q0 -0.234375 -0.171875 -0.421875q-0.15625 -0.1875 -0.40625 -0.1875l-1.65625 0q-0.25 0 -0.421875 0.1875q-0.15625 0.1875 -0.15625 0.421875l0 16.468765l-4.296875 0l0 -16.093765q0 -4.046875 3.796875 -4.046875l3.8125 0q3.796875 0 3.796875 4.046875l0 16.093765zm1.755249 -16.187515l0 -3.640625l10.71875 0l0 3.640625l-3.21875 0l0 16.187515l-4.28125 0l0 -16.187515l-3.21875 0zm23.682434 1.5625l-4.0625 0l0 -1.5625q0 -0.25 -0.171875 -0.421875q-0.171875 -0.1875 -0.421875 -0.1875l-1.6875 0q-0.234375 0 -0.40625 0.1875q-0.171875 0.171875 -0.171875 0.421875l0 3.53125q0 0.234375 0.171875 0.421875q0.171875 0.1875 0.40625 0.1875l2.765625 0q3.796875 0.0625 3.796875 4.046875l0 4.2656403q0 4.046875 -3.796875 4.046875l-3.625 0q-3.796875 0 -3.796875 -4.046875l0 -2.0625l4.078125 0l0 2.203125q0 0.25 0.171875 0.4375q0.171875 0.1875 0.40625 0.1875l1.90625 0q0.25 0 0.40625 -0.1875q0.171875 -0.1875 0.171875 -0.4375l0 -3.890625q0 -0.23439026 -0.171875 -0.42189026q-0.15625 -0.1875 -0.40625 -0.1875l-2.765625 0q-3.796875 0 -3.796875 -4.046875l0 -3.953125q0 -4.046875 3.796875 -4.046875l3.40625 0q3.796875 0 3.796875 4.046875l0 1.46875z" fill-rule="nonzero"/></g></svg>