<?xml version="1.0" encoding="UTF-8"?>
<svg width="512pt" height="512pt" version="1.1" viewBox="0 0 512 512" xmlns="http://www.w3.org/2000/svg">
 <path d="m434.69 306.18v-100.35c22.016-4.6094 38.398-24.062 38.398-47.105 0-26.625-21.504-48.129-48.129-48.129-14.336 0-26.625 6.1445-35.84 15.871l-87.551-50.176c1.5352-4.6094 2.5586-9.7266 2.5586-14.848 0-26.625-21.504-48.129-48.129-48.129s-48.129 21.504-48.129 48.129c0 5.1211 1.0234 10.238 2.5586 14.848l-87.547 50.18c-8.7031-9.7266-21.504-15.871-35.84-15.871-26.625 0-48.129 21.504-48.129 48.129 0 23.039 16.383 42.496 38.398 47.105v100.35c-22.016 4.6094-38.398 24.062-38.398 47.105 0 26.625 21.504 48.129 48.129 48.129 14.336 0 26.625-6.1445 35.84-15.871l87.551 50.176c-1.5352 4.6094-2.5586 9.7266-2.5586 14.848 0 26.625 21.504 48.129 48.129 48.129s48.129-21.504 48.129-48.129c0-5.1211-1.0234-10.238-2.5586-14.848l87.551-50.184c8.7031 9.7266 21.504 15.871 35.84 15.871 26.625 0 48.129-21.504 48.129-48.129 0-23.039-16.387-42.492-38.402-47.102zm-9.7266-175.62c15.359 0 28.16 12.801 28.16 28.16s-12.801 28.16-28.16 28.16c-15.359 0-28.16-12.801-28.16-28.16 0-15.871 12.289-28.16 28.16-28.16zm-168.96-97.789c15.359 0 28.16 12.801 28.16 28.16 0 15.359-12.801 28.16-28.16 28.16s-28.16-12.801-28.16-28.16c0-15.363 12.801-28.16 28.16-28.16zm-197.12 125.95c0-15.359 12.801-28.16 28.16-28.16 15.359 0 28.16 12.801 28.16 28.16s-12.801 28.16-28.16 28.16c-15.359 0-28.16-12.801-28.16-28.16zm28.16 222.72c-15.359 0-28.16-12.801-28.16-28.16s12.801-28.16 28.16-28.16c15.359 0 28.16 12.801 28.16 28.16 0 15.871-12.289 28.16-28.16 28.16zm168.96 97.789c-15.359 0-28.16-12.801-28.16-28.16 0-15.359 12.801-28.16 28.16-28.16s28.16 12.801 28.16 28.16c0 15.363-12.801 28.16-28.16 28.16zm35.84-60.414c-8.7031-9.7266-21.504-15.871-35.84-15.871s-26.625 6.1445-35.84 15.871l-87.039-50.688c1.5352-4.6094 2.5586-9.7266 2.5586-14.848 0-23.039-16.383-42.496-38.398-47.105v-100.35c22.016-4.6094 38.398-24.062 38.398-47.105 0-5.1211-1.0234-10.238-2.5586-14.848l87.039-50.688c8.7031 9.7266 21.504 15.871 35.84 15.871s26.625-6.1445 35.84-15.871l87.039 50.688c-1.5352 4.6094-2.5586 9.7305-2.5586 14.848 0 23.039 16.383 42.496 38.398 47.105v100.35c-22.016 4.6094-38.398 24.062-38.398 47.105 0 5.1211 1.0234 10.238 2.5586 14.848zm133.12-37.375c-15.359 0-28.16-12.801-28.16-28.16s12.801-28.16 28.16-28.16c15.359 0 28.16 12.801 28.16 28.16 0 15.871-12.801 28.16-28.16 28.16z" fill="#fff"/>
 <path d="m356.86 205.31c0-4.0977-2.5586-7.6797-6.1445-9.2148l-90.625-40.961c-2.5586-1.0234-5.6328-1.0234-8.1914 0l-90.625 40.961c-3.5859 1.5352-6.1445 5.1211-6.1445 9.2148 0 4.0977 2.5586 7.6797 6.1445 9.2148l35.84 15.871-35.84 15.871c-3.5859 1.5352-6.1445 5.1211-6.1445 9.2148 0 4.0977 2.5586 7.6797 6.1445 9.2148l35.84 15.871-35.84 16.383c-3.5859 1.5352-6.1445 5.1211-6.1445 9.2148 0 4.0977 2.5586 7.6797 6.1445 9.2148l90.625 40.961c1.5352 0.51172 2.5586 1.0234 4.0977 1.0234 1.5352 0 3.0703-0.51172 4.0977-1.0234l90.625-40.961c3.5859-1.5352 6.1445-5.1211 6.1445-9.2148 0-4.0977-2.5586-7.6797-6.1445-9.2148l-35.84-16.383 35.84-15.871c3.5859-1.5352 6.1445-5.1211 6.1445-9.2148 0-4.0977-2.5586-7.6797-6.1445-9.2148l-35.84-15.871 35.84-15.871c3.582-1.5352 6.1406-5.1211 6.1406-9.2148zm-34.816 101.38-66.047 29.695-66.047-29.695 31.742-14.336 30.207 13.824c1.5352 0.51172 2.5586 1.0234 4.0977 1.0234 1.5352 0 3.0703-0.51172 4.0977-1.0234l30.207-13.824zm0-50.688-66.047 29.695-66.047-29.695 31.742-14.336 30.207 13.824c1.5352 0.51172 2.5586 1.0234 4.0977 1.0234 1.5352 0 3.0703-0.51172 4.0977-1.0234l30.207-13.824zm-66.047-20.992-66.047-29.695 66.047-29.695 66.047 29.695z" fill="#fff"/>
</svg>
