<?xml version="1.0" encoding="UTF-8" standalone="no"?>
<svg
   width="512pt"
   height="512pt"
   version="1.1"
   viewBox="0 0 512 512"
   id="svg2"
   sodipodi:docname="logo-black-metal-shadow.svg"
   inkscape:version="1.3.2 (091e20ef0f, 2023-11-25)"
   inkscape:export-filename="logo-black-metal-shadow.png"
   inkscape:export-xdpi="5.81863"
   inkscape:export-ydpi="5.81863"
   xmlns:inkscape="http://www.inkscape.org/namespaces/inkscape"
   xmlns:sodipodi="http://sodipodi.sourceforge.net/DTD/sodipodi-0.dtd"
   xmlns="http://www.w3.org/2000/svg"
   xmlns:svg="http://www.w3.org/2000/svg">
  <defs
     id="defs2">
    <filter
       style="color-interpolation-filters:sRGB;"
       inkscape:label="Sharpen More"
       inkscape:menu-tooltip="Sharpen edges and boundaries within the object, force=0.3"
       inkscape:menu="Image Effects"
       height="1.1112517"
       y="-0.049445184"
       width="1.1243722"
       x="-0.055276512"
       id="filter65">
      <feGaussianBlur
         result="result8"
         stdDeviation="5"
         in="SourceGraphic"
         id="feGaussianBlur59" />
      <feComposite
         result="result19"
         operator="xor"
         in2="result8"
         id="feComposite59" />
      <feComposite
         in2="result8"
         result="result17"
         operator="arithmetic"
         k2="1"
         id="feComposite60" />
      <feComposite
         operator="xor"
         result="result6"
         in2="result17"
         id="feComposite61" />
      <feOffset
         in="result6"
         result="result18"
         id="feOffset61" />
      <feDisplacementMap
         result="result4"
         scale="100"
         yChannelSelector="A"
         xChannelSelector="A"
         in="result18"
         in2="result17"
         id="feDisplacementMap61" />
      <feComposite
         k3="1"
         operator="arithmetic"
         result="result2"
         in2="result4"
         in="result4"
         id="feComposite62" />
      <feComposite
         operator="over"
         in="result2"
         result="fbSourceGraphic"
         in2="result2"
         id="feComposite63" />
      <feComposite
         result="result15"
         operator="xor"
         in2="SourceGraphic"
         in="fbSourceGraphic"
         id="feComposite64" />
      <feComposite
         in="result15"
         operator="in"
         in2="result8"
         result="fbSourceGraphic"
         id="feComposite65" />
      <feColorMatrix
         result="fbSourceGraphicAlpha"
         in="fbSourceGraphic"
         values="0 0 0 -1 0 0 0 0 -1 0 0 0 0 -1 0 0 0 0 1 0"
         id="feColorMatrix72" />
      <feFlood
         id="feFlood72"
         result="flood"
         in="fbSourceGraphic"
         flood-opacity="0.498039"
         flood-color="rgb(0,0,0)" />
      <feGaussianBlur
         id="feGaussianBlur72"
         result="blur"
         in="fbSourceGraphic"
         stdDeviation="5.000000" />
      <feOffset
         id="feOffset72"
         result="offset"
         in="blur"
         dx="6.000000"
         dy="6.000000" />
      <feComposite
         id="feComposite73"
         result="comp1"
         operator="in"
         in="flood"
         in2="offset" />
      <feComposite
         id="feComposite74"
         result="fbSourceGraphic"
         operator="over"
         in="fbSourceGraphic"
         in2="comp1" />
      <feColorMatrix
         result="fbSourceGraphicAlpha"
         in="fbSourceGraphic"
         values="0 0 0 -1 0 0 0 0 -1 0 0 0 0 -1 0 0 0 0 1 0"
         id="feColorMatrix9" />
      <feConvolveMatrix
         id="feConvolveMatrix9"
         order="3 3"
         kernelMatrix="0 -0.15 0 -0.15 1.6 -0.15 0 -0.15 0"
         divisor="1"
         in="fbSourceGraphic"
         targetX="1"
         targetY="1"
         result="fbSourceGraphic" />
      <feColorMatrix
         result="fbSourceGraphicAlpha"
         in="fbSourceGraphic"
         values="0 0 0 -1 0 0 0 0 -1 0 0 0 0 -1 0 0 0 0 1 0"
         id="feColorMatrix11" />
      <feConvolveMatrix
         id="feConvolveMatrix11"
         targetY="1"
         targetX="1"
         in="fbSourceGraphic"
         divisor="1"
         kernelMatrix="0 -0.3 0 -0.3 2.2 -0.3 0 -0.3 0"
         order="3 3"
         result="result1" />
      <feBlend
         id="feBlend11"
         in2="fbSourceGraphic"
         mode="normal"
         result="fbSourceGraphic" />
      <feColorMatrix
         result="fbSourceGraphicAlpha"
         in="fbSourceGraphic"
         values="0 0 0 -1 0 0 0 0 -1 0 0 0 0 -1 0 0 0 0 1 0"
         id="feColorMatrix13" />
      <feConvolveMatrix
         id="feConvolveMatrix13"
         targetY="1"
         targetX="1"
         in="fbSourceGraphic"
         divisor="1"
         kernelMatrix="0 -0.3 0 -0.3 2.2 -0.3 0 -0.3 0"
         order="3 3"
         result="result1" />
      <feBlend
         id="feBlend13"
         in2="fbSourceGraphic"
         mode="normal"
         result="result2" />
    </filter>
    <filter
       style="color-interpolation-filters:sRGB;"
       inkscape:label="Sharpen More"
       inkscape:menu-tooltip="Sharpen edges and boundaries within the object, force=0.3"
       inkscape:menu="Image Effects"
       height="1.2660128"
       y="-0.11822791"
       width="1.2676787"
       x="-0.11896831"
       id="filter72">
      <feGaussianBlur
         result="result8"
         stdDeviation="5"
         in="SourceGraphic"
         id="feGaussianBlur65" />
      <feComposite
         result="result19"
         operator="xor"
         in2="result8"
         id="feComposite66" />
      <feComposite
         in2="result8"
         result="result17"
         operator="arithmetic"
         k2="1"
         id="feComposite67" />
      <feComposite
         operator="xor"
         result="result6"
         in2="result17"
         id="feComposite68" />
      <feOffset
         in="result6"
         result="result18"
         id="feOffset68" />
      <feDisplacementMap
         result="result4"
         scale="100"
         yChannelSelector="A"
         xChannelSelector="A"
         in="result18"
         in2="result17"
         id="feDisplacementMap68" />
      <feComposite
         k3="1"
         operator="arithmetic"
         result="result2"
         in2="result4"
         in="result4"
         id="feComposite69" />
      <feComposite
         operator="over"
         in="result2"
         result="fbSourceGraphic"
         in2="result2"
         id="feComposite70" />
      <feComposite
         result="result15"
         operator="xor"
         in2="SourceGraphic"
         in="fbSourceGraphic"
         id="feComposite71" />
      <feComposite
         in="result15"
         operator="in"
         in2="result8"
         result="fbSourceGraphic"
         id="feComposite72" />
      <feColorMatrix
         result="fbSourceGraphicAlpha"
         in="fbSourceGraphic"
         values="0 0 0 -1 0 0 0 0 -1 0 0 0 0 -1 0 0 0 0 1 0"
         id="feColorMatrix74" />
      <feFlood
         id="feFlood74"
         result="flood"
         in="fbSourceGraphic"
         flood-opacity="0.498039"
         flood-color="rgb(0,0,0)" />
      <feGaussianBlur
         id="feGaussianBlur74"
         result="blur"
         in="fbSourceGraphic"
         stdDeviation="5.000000" />
      <feOffset
         id="feOffset74"
         result="offset"
         in="blur"
         dx="6.000000"
         dy="6.000000" />
      <feComposite
         id="feComposite75"
         result="comp1"
         operator="in"
         in="flood"
         in2="offset" />
      <feComposite
         id="feComposite76"
         result="fbSourceGraphic"
         operator="over"
         in="fbSourceGraphic"
         in2="comp1" />
      <feColorMatrix
         result="fbSourceGraphicAlpha"
         in="fbSourceGraphic"
         values="0 0 0 -1 0 0 0 0 -1 0 0 0 0 -1 0 0 0 0 1 0"
         id="feColorMatrix10" />
      <feConvolveMatrix
         id="feConvolveMatrix10"
         order="3 3"
         kernelMatrix="0 -0.15 0 -0.15 1.6 -0.15 0 -0.15 0"
         divisor="1"
         in="fbSourceGraphic"
         targetX="1"
         targetY="1"
         result="fbSourceGraphic" />
      <feColorMatrix
         result="fbSourceGraphicAlpha"
         in="fbSourceGraphic"
         values="0 0 0 -1 0 0 0 0 -1 0 0 0 0 -1 0 0 0 0 1 0"
         id="feColorMatrix12" />
      <feConvolveMatrix
         id="feConvolveMatrix12"
         targetY="1"
         targetX="1"
         in="fbSourceGraphic"
         divisor="1"
         kernelMatrix="0 -0.3 0 -0.3 2.2 -0.3 0 -0.3 0"
         order="3 3"
         result="result1" />
      <feBlend
         id="feBlend12"
         in2="fbSourceGraphic"
         mode="normal"
         result="fbSourceGraphic" />
      <feColorMatrix
         result="fbSourceGraphicAlpha"
         in="fbSourceGraphic"
         values="0 0 0 -1 0 0 0 0 -1 0 0 0 0 -1 0 0 0 0 1 0"
         id="feColorMatrix14" />
      <feConvolveMatrix
         id="feConvolveMatrix14"
         targetY="1"
         targetX="1"
         in="fbSourceGraphic"
         divisor="1"
         kernelMatrix="0 -0.3 0 -0.3 2.2 -0.3 0 -0.3 0"
         order="3 3"
         result="result1" />
      <feBlend
         id="feBlend14"
         in2="fbSourceGraphic"
         mode="normal"
         result="result2" />
    </filter>
  </defs>
  <sodipodi:namedview
     id="namedview2"
     pagecolor="#ffffff"
     bordercolor="#666666"
     borderopacity="1.0"
     inkscape:showpageshadow="2"
     inkscape:pageopacity="0.0"
     inkscape:pagecheckerboard="0"
     inkscape:deskcolor="#d1d1d1"
     inkscape:document-units="pt"
     inkscape:zoom="2.6147461"
     inkscape:cx="341.14211"
     inkscape:cy="341.33333"
     inkscape:window-width="3456"
     inkscape:window-height="2077"
     inkscape:window-x="0"
     inkscape:window-y="0"
     inkscape:window-maximized="1"
     inkscape:current-layer="svg2" />
  <path
     d="m434.69 306.18v-100.35c22.016-4.6094 38.398-24.062 38.398-47.105 0-26.625-21.504-48.129-48.129-48.129-14.336 0-26.625 6.1445-35.84 15.871l-87.551-50.176c1.5352-4.6094 2.5586-9.7266 2.5586-14.848 0-26.625-21.504-48.129-48.129-48.129s-48.129 21.504-48.129 48.129c0 5.1211 1.0234 10.238 2.5586 14.848l-87.547 50.18c-8.7031-9.7266-21.504-15.871-35.84-15.871-26.625 0-48.129 21.504-48.129 48.129 0 23.039 16.383 42.496 38.398 47.105v100.35c-22.016 4.6094-38.398 24.062-38.398 47.105 0 26.625 21.504 48.129 48.129 48.129 14.336 0 26.625-6.1445 35.84-15.871l87.551 50.176c-1.5352 4.6094-2.5586 9.7266-2.5586 14.848 0 26.625 21.504 48.129 48.129 48.129s48.129-21.504 48.129-48.129c0-5.1211-1.0234-10.238-2.5586-14.848l87.551-50.184c8.7031 9.7266 21.504 15.871 35.84 15.871 26.625 0 48.129-21.504 48.129-48.129 0-23.039-16.387-42.492-38.402-47.102zm-9.7266-175.62c15.359 0 28.16 12.801 28.16 28.16s-12.801 28.16-28.16 28.16c-15.359 0-28.16-12.801-28.16-28.16 0-15.871 12.289-28.16 28.16-28.16zm-168.96-97.789c15.359 0 28.16 12.801 28.16 28.16 0 15.359-12.801 28.16-28.16 28.16s-28.16-12.801-28.16-28.16c0-15.363 12.801-28.16 28.16-28.16zm-197.12 125.95c0-15.359 12.801-28.16 28.16-28.16 15.359 0 28.16 12.801 28.16 28.16s-12.801 28.16-28.16 28.16c-15.359 0-28.16-12.801-28.16-28.16zm28.16 222.72c-15.359 0-28.16-12.801-28.16-28.16s12.801-28.16 28.16-28.16c15.359 0 28.16 12.801 28.16 28.16 0 15.871-12.289 28.16-28.16 28.16zm168.96 97.789c-15.359 0-28.16-12.801-28.16-28.16 0-15.359 12.801-28.16 28.16-28.16s28.16 12.801 28.16 28.16c0 15.363-12.801 28.16-28.16 28.16zm35.84-60.414c-8.7031-9.7266-21.504-15.871-35.84-15.871s-26.625 6.1445-35.84 15.871l-87.039-50.688c1.5352-4.6094 2.5586-9.7266 2.5586-14.848 0-23.039-16.383-42.496-38.398-47.105v-100.35c22.016-4.6094 38.398-24.062 38.398-47.105 0-5.1211-1.0234-10.238-2.5586-14.848l87.039-50.688c8.7031 9.7266 21.504 15.871 35.84 15.871s26.625-6.1445 35.84-15.871l87.039 50.688c-1.5352 4.6094-2.5586 9.7305-2.5586 14.848 0 23.039 16.383 42.496 38.398 47.105v100.35c-22.016 4.6094-38.398 24.062-38.398 47.105 0 5.1211 1.0234 10.238 2.5586 14.848zm133.12-37.375c-15.359 0-28.16-12.801-28.16-28.16s12.801-28.16 28.16-28.16c15.359 0 28.16 12.801 28.16 28.16 0 15.871-12.801 28.16-28.16 28.16z"
     id="path1"
     style="filter:url(#filter65)" />
  <path
     d="m356.86 205.31c0-4.0977-2.5586-7.6797-6.1445-9.2148l-90.625-40.961c-2.5586-1.0234-5.6328-1.0234-8.1914 0l-90.625 40.961c-3.5859 1.5352-6.1445 5.1211-6.1445 9.2148 0 4.0977 2.5586 7.6797 6.1445 9.2148l35.84 15.871-35.84 15.871c-3.5859 1.5352-6.1445 5.1211-6.1445 9.2148 0 4.0977 2.5586 7.6797 6.1445 9.2148l35.84 15.871-35.84 16.383c-3.5859 1.5352-6.1445 5.1211-6.1445 9.2148 0 4.0977 2.5586 7.6797 6.1445 9.2148l90.625 40.961c1.5352 0.51172 2.5586 1.0234 4.0977 1.0234 1.5352 0 3.0703-0.51172 4.0977-1.0234l90.625-40.961c3.5859-1.5352 6.1445-5.1211 6.1445-9.2148 0-4.0977-2.5586-7.6797-6.1445-9.2148l-35.84-16.383 35.84-15.871c3.5859-1.5352 6.1445-5.1211 6.1445-9.2148 0-4.0977-2.5586-7.6797-6.1445-9.2148l-35.84-15.871 35.84-15.871c3.582-1.5352 6.1406-5.1211 6.1406-9.2148zm-34.816 101.38-66.047 29.695-66.047-29.695 31.742-14.336 30.207 13.824c1.5352 0.51172 2.5586 1.0234 4.0977 1.0234 1.5352 0 3.0703-0.51172 4.0977-1.0234l30.207-13.824zm0-50.688-66.047 29.695-66.047-29.695 31.742-14.336 30.207 13.824c1.5352 0.51172 2.5586 1.0234 4.0977 1.0234 1.5352 0 3.0703-0.51172 4.0977-1.0234l30.207-13.824zm-66.047-20.992-66.047-29.695 66.047-29.695 66.047 29.695z"
     id="path2"
     style="filter:url(#filter72)" />
</svg>
