<?xml version="1.0" encoding="UTF-8" standalone="no"?>
<!-- Created with Inkscape (http://www.inkscape.org/) -->

<svg
   width="10.600427in"
   height="2.6104906in"
   viewBox="0 0 269.25083 66.30646"
   version="1.1"
   id="svg1"
   xml:space="preserve"
   inkscape:version="1.4 (e7c3feb100, 2024-10-09)"
   sodipodi:docname="workflow-dark.svg"
   inkscape:export-filename="workflow-dark.png"
   inkscape:export-xdpi="96"
   inkscape:export-ydpi="96"
   xmlns:inkscape="http://www.inkscape.org/namespaces/inkscape"
   xmlns:sodipodi="http://sodipodi.sourceforge.net/DTD/sodipodi-0.dtd"
   xmlns="http://www.w3.org/2000/svg"
   xmlns:svg="http://www.w3.org/2000/svg"><sodipodi:namedview
     id="namedview1"
     pagecolor="#ffffff"
     bordercolor="#666666"
     borderopacity="1.0"
     inkscape:showpageshadow="2"
     inkscape:pageopacity="0.0"
     inkscape:pagecheckerboard="0"
     inkscape:deskcolor="#d1d1d1"
     inkscape:document-units="mm"
     inkscape:zoom="1.5180135"
     inkscape:cx="479.90351"
     inkscape:cy="81.685703"
     inkscape:window-width="2560"
     inkscape:window-height="1486"
     inkscape:window-x="0"
     inkscape:window-y="0"
     inkscape:window-maximized="1"
     inkscape:current-layer="layer1" /><defs
     id="defs1"><rect
       x="109.36116"
       y="550.15619"
       width="253.4614"
       height="46.300747"
       id="rect230" /><filter
       inkscape:menu-tooltip="Pressed metal with a rolled edge"
       inkscape:menu="Bevels"
       inkscape:label="Pressed Steel"
       style="color-interpolation-filters:sRGB"
       id="filter132"
       x="-0.030241297"
       y="-0.030739192"
       width="1.0604826"
       height="1.0616565"><feGaussianBlur
         result="result1"
         stdDeviation="3"
         id="feGaussianBlur127" /><feBlend
         in2="result1"
         result="result5"
         mode="multiply"
         in="result1"
         id="feBlend127" /><feGaussianBlur
         in="result5"
         result="result6"
         stdDeviation="1"
         id="feGaussianBlur128" /><feComposite
         result="result8"
         in2="result5"
         in="result6"
         operator="xor"
         id="feComposite128" /><feComposite
         in="result6"
         result="fbSourceGraphic"
         operator="xor"
         in2="result8"
         id="feComposite129" /><feSpecularLighting
         in="fbSourceGraphic"
         result="result1"
         lighting-color="#ffffff"
         surfaceScale="2"
         specularConstant="2.20000005"
         specularExponent="55"
         id="feSpecularLighting129"><fePointLight
           x="-5000"
           y="-10000"
           z="20000"
           id="fePointLight129" /></feSpecularLighting><feComposite
         in2="fbSourceGraphic"
         in="result1"
         result="result2"
         operator="in"
         id="feComposite130" /><feComposite
         in="fbSourceGraphic"
         result="result4"
         operator="arithmetic"
         k2="2"
         k3="1"
         in2="result2"
         id="feComposite131"
         k1="0"
         k4="0" /><feComposite
         in2="result4"
         in="result4"
         operator="in"
         result="result91"
         id="feComposite132" /><feBlend
         mode="darken"
         in2="result91"
         id="feBlend132" /></filter><filter
       inkscape:menu-tooltip="Pressed metal with a rolled edge"
       inkscape:menu="Bevels"
       inkscape:label="Pressed Steel"
       style="color-interpolation-filters:sRGB"
       id="filter137"
       x="-0.022610125"
       y="-0.021992021"
       width="1.0452165"
       height="1.0439978"><feGaussianBlur
         result="result1"
         stdDeviation="3"
         id="feGaussianBlur132" /><feBlend
         in2="result1"
         result="result5"
         mode="multiply"
         in="result1"
         id="feBlend133" /><feGaussianBlur
         in="result5"
         result="result6"
         stdDeviation="1"
         id="feGaussianBlur133" /><feComposite
         result="result8"
         in2="result5"
         in="result6"
         operator="xor"
         id="feComposite133" /><feComposite
         in="result6"
         result="fbSourceGraphic"
         operator="xor"
         in2="result8"
         id="feComposite134" /><feSpecularLighting
         in="fbSourceGraphic"
         result="result1"
         lighting-color="#ffffff"
         surfaceScale="2"
         specularConstant="2.20000005"
         specularExponent="55"
         id="feSpecularLighting134"><fePointLight
           x="-5000"
           y="-10000"
           z="20000"
           id="fePointLight134" /></feSpecularLighting><feComposite
         in2="fbSourceGraphic"
         in="result1"
         result="result2"
         operator="in"
         id="feComposite135" /><feComposite
         in="fbSourceGraphic"
         result="result4"
         operator="arithmetic"
         k2="2"
         k3="1"
         in2="result2"
         id="feComposite136"
         k1="0"
         k4="0" /><feComposite
         in2="result4"
         in="result4"
         operator="in"
         result="result91"
         id="feComposite137" /><feBlend
         mode="darken"
         in2="result91"
         id="feBlend137" /></filter><filter
       inkscape:menu-tooltip="Pressed metal with a rolled edge"
       inkscape:menu="Bevels"
       inkscape:label="Pressed Steel"
       style="color-interpolation-filters:sRGB"
       id="filter142"
       x="-0.021904311"
       y="-0.01913256"
       width="1.0438086"
       height="1.0382651"><feGaussianBlur
         result="result1"
         stdDeviation="3"
         id="feGaussianBlur137" /><feBlend
         in2="result1"
         result="result5"
         mode="multiply"
         in="result1"
         id="feBlend138" /><feGaussianBlur
         in="result5"
         result="result6"
         stdDeviation="1"
         id="feGaussianBlur138" /><feComposite
         result="result8"
         in2="result5"
         in="result6"
         operator="xor"
         id="feComposite138" /><feComposite
         in="result6"
         result="fbSourceGraphic"
         operator="xor"
         in2="result8"
         id="feComposite139" /><feSpecularLighting
         in="fbSourceGraphic"
         result="result1"
         lighting-color="#ffffff"
         surfaceScale="2"
         specularConstant="2.20000005"
         specularExponent="55"
         id="feSpecularLighting139"><fePointLight
           x="-5000"
           y="-10000"
           z="20000"
           id="fePointLight139" /></feSpecularLighting><feComposite
         in2="fbSourceGraphic"
         in="result1"
         result="result2"
         operator="in"
         id="feComposite140" /><feComposite
         in="fbSourceGraphic"
         result="result4"
         operator="arithmetic"
         k2="2"
         k3="1"
         in2="result2"
         id="feComposite141"
         k1="0"
         k4="0" /><feComposite
         in2="result4"
         in="result4"
         operator="in"
         result="result91"
         id="feComposite142" /><feBlend
         mode="darken"
         in2="result91"
         id="feBlend142" /></filter><filter
       inkscape:menu-tooltip="Pressed metal with a rolled edge"
       inkscape:menu="Bevels"
       inkscape:label="Pressed Steel"
       style="color-interpolation-filters:sRGB"
       id="filter147"
       x="-0.039027668"
       y="-0.040803092"
       width="1.0780553"
       height="1.0816062"><feGaussianBlur
         result="result1"
         stdDeviation="3"
         id="feGaussianBlur142" /><feBlend
         in2="result1"
         result="result5"
         mode="multiply"
         in="result1"
         id="feBlend143" /><feGaussianBlur
         in="result5"
         result="result6"
         stdDeviation="1"
         id="feGaussianBlur143" /><feComposite
         result="result8"
         in2="result5"
         in="result6"
         operator="xor"
         id="feComposite143" /><feComposite
         in="result6"
         result="fbSourceGraphic"
         operator="xor"
         in2="result8"
         id="feComposite144" /><feSpecularLighting
         in="fbSourceGraphic"
         result="result1"
         lighting-color="#ffffff"
         surfaceScale="2"
         specularConstant="2.20000005"
         specularExponent="55"
         id="feSpecularLighting144"><fePointLight
           x="-5000"
           y="-10000"
           z="20000"
           id="fePointLight144" /></feSpecularLighting><feComposite
         in2="fbSourceGraphic"
         in="result1"
         result="result2"
         operator="in"
         id="feComposite145" /><feComposite
         in="fbSourceGraphic"
         result="result4"
         operator="arithmetic"
         k2="2"
         k3="1"
         in2="result2"
         id="feComposite146"
         k1="0"
         k4="0" /><feComposite
         in2="result4"
         in="result4"
         operator="in"
         result="result91"
         id="feComposite147" /><feBlend
         mode="darken"
         in2="result91"
         id="feBlend147" /></filter><filter
       inkscape:menu-tooltip="Pressed metal with a rolled edge"
       inkscape:menu="Bevels"
       inkscape:label="Pressed Steel"
       style="color-interpolation-filters:sRGB"
       id="filter220"
       x="-0.073612875"
       y="-0.12331702"
       width="1.1472257"
       height="1.246634"><feGaussianBlur
         result="result1"
         stdDeviation="3"
         id="feGaussianBlur215" /><feBlend
         in2="result1"
         result="result5"
         mode="multiply"
         in="result1"
         id="feBlend215" /><feGaussianBlur
         in="result5"
         result="result6"
         stdDeviation="1"
         id="feGaussianBlur216" /><feComposite
         result="result8"
         in2="result5"
         in="result6"
         operator="xor"
         id="feComposite216" /><feComposite
         in="result6"
         result="fbSourceGraphic"
         operator="xor"
         in2="result8"
         id="feComposite217" /><feSpecularLighting
         in="fbSourceGraphic"
         result="result1"
         lighting-color="#ffffff"
         surfaceScale="2"
         specularConstant="2.20000005"
         specularExponent="55"
         id="feSpecularLighting217"><fePointLight
           x="-5000"
           y="-10000"
           z="20000"
           id="fePointLight217" /></feSpecularLighting><feComposite
         in2="fbSourceGraphic"
         in="result1"
         result="result2"
         operator="in"
         id="feComposite218" /><feComposite
         in="fbSourceGraphic"
         result="result4"
         operator="arithmetic"
         k2="2"
         k3="1"
         in2="result2"
         id="feComposite219"
         k1="0"
         k4="0" /><feComposite
         in2="result4"
         in="result4"
         operator="in"
         result="result91"
         id="feComposite220" /><feBlend
         mode="darken"
         in2="result91"
         id="feBlend220" /></filter><filter
       inkscape:menu-tooltip="Pressed metal with a rolled edge"
       inkscape:menu="Bevels"
       inkscape:label="Invert"
       style="color-interpolation-filters:sRGB"
       id="filter230"
       x="-0.046402096"
       y="-0.056503821"
       width="1.0928042"
       height="1.1130076"><feGaussianBlur
         result="result1"
         stdDeviation="3"
         id="feGaussianBlur225" /><feBlend
         in2="result1"
         result="result5"
         mode="multiply"
         in="result1"
         id="feBlend225" /><feGaussianBlur
         in="result5"
         result="result6"
         stdDeviation="1"
         id="feGaussianBlur226" /><feComposite
         result="result8"
         in2="result5"
         in="result6"
         operator="xor"
         id="feComposite226" /><feComposite
         in="result6"
         result="fbSourceGraphic"
         operator="xor"
         in2="result8"
         id="feComposite227" /><feSpecularLighting
         in="fbSourceGraphic"
         result="result1"
         lighting-color="#ffffff"
         surfaceScale="2"
         specularConstant="2.20000005"
         specularExponent="55"
         id="feSpecularLighting227"><fePointLight
           x="-5000"
           y="-10000"
           z="20000"
           id="fePointLight227" /></feSpecularLighting><feComposite
         in2="fbSourceGraphic"
         in="result1"
         result="result2"
         operator="in"
         id="feComposite228" /><feComposite
         in="fbSourceGraphic"
         result="result4"
         operator="arithmetic"
         k2="2"
         k3="1"
         in2="result2"
         id="feComposite229"
         k1="0"
         k4="0" /><feComposite
         in2="result4"
         in="result4"
         operator="in"
         result="result91"
         id="feComposite230" /><feBlend
         mode="darken"
         in2="result91"
         id="feBlend230"
         result="fbSourceGraphic" /><feColorMatrix
         result="fbSourceGraphicAlpha"
         in="fbSourceGraphic"
         values="0 0 0 -1 0 0 0 0 -1 0 0 0 0 -1 0 0 0 0 1 0"
         id="feColorMatrix612" /><feColorMatrix
         id="feColorMatrix613"
         type="hueRotate"
         values="180"
         result="color1"
         in="fbSourceGraphic" /><feColorMatrix
         id="feColorMatrix614"
         values="-1 0 0 0 1 0 -1 0 0 1 0 0 -1 0 1 -0.21 -0.72 -0.07 2 0 "
         result="color2" /></filter><filter
       inkscape:menu-tooltip="Pressed metal with a rolled edge"
       inkscape:menu="Bevels"
       inkscape:label="Invert"
       style="color-interpolation-filters:sRGB"
       id="filter230-1"
       x="-0.046402096"
       y="-0.056503821"
       width="1.0928042"
       height="1.1130076"><feGaussianBlur
         result="result1"
         stdDeviation="3"
         id="feGaussianBlur225-5" /><feBlend
         in2="result1"
         result="result5"
         mode="multiply"
         in="result1"
         id="feBlend225-5" /><feGaussianBlur
         in="result5"
         result="result6"
         stdDeviation="1"
         id="feGaussianBlur226-4" /><feComposite
         result="result8"
         in2="result5"
         in="result6"
         operator="xor"
         id="feComposite226-7" /><feComposite
         in="result6"
         result="fbSourceGraphic"
         operator="xor"
         in2="result8"
         id="feComposite227-6" /><feSpecularLighting
         in="fbSourceGraphic"
         result="result1"
         lighting-color="#ffffff"
         surfaceScale="2"
         specularConstant="2.20000005"
         specularExponent="55"
         id="feSpecularLighting227-5"><fePointLight
           x="-5000"
           y="-10000"
           z="20000"
           id="fePointLight227-6" /></feSpecularLighting><feComposite
         in2="fbSourceGraphic"
         in="result1"
         result="result2"
         operator="in"
         id="feComposite228-9" /><feComposite
         in="fbSourceGraphic"
         result="result4"
         operator="arithmetic"
         k2="2"
         k3="1"
         in2="result2"
         id="feComposite229-3"
         k1="0"
         k4="0" /><feComposite
         in2="result4"
         in="result4"
         operator="in"
         result="result91"
         id="feComposite230-7" /><feBlend
         mode="darken"
         in2="result91"
         id="feBlend230-4"
         result="fbSourceGraphic" /><feColorMatrix
         result="fbSourceGraphicAlpha"
         in="fbSourceGraphic"
         values="0 0 0 -1 0 0 0 0 -1 0 0 0 0 -1 0 0 0 0 1 0"
         id="feColorMatrix609" /><feColorMatrix
         id="feColorMatrix610"
         type="hueRotate"
         values="180"
         result="color1"
         in="fbSourceGraphic" /><feColorMatrix
         id="feColorMatrix611"
         values="-1 0 0 0 1 0 -1 0 0 1 0 0 -1 0 1 -0.21 -0.72 -0.07 2 0 "
         result="color2" /></filter><filter
       inkscape:menu-tooltip="Pressed metal with a rolled edge"
       inkscape:menu="Bevels"
       inkscape:label="Invert"
       style="color-interpolation-filters:sRGB"
       id="filter230-4"
       x="-0.046402096"
       y="-0.056503821"
       width="1.0928042"
       height="1.1130076"><feGaussianBlur
         result="result1"
         stdDeviation="3"
         id="feGaussianBlur225-4" /><feBlend
         in2="result1"
         result="result5"
         mode="multiply"
         in="result1"
         id="feBlend225-3" /><feGaussianBlur
         in="result5"
         result="result6"
         stdDeviation="1"
         id="feGaussianBlur226-0" /><feComposite
         result="result8"
         in2="result5"
         in="result6"
         operator="xor"
         id="feComposite226-78" /><feComposite
         in="result6"
         result="fbSourceGraphic"
         operator="xor"
         in2="result8"
         id="feComposite227-68" /><feSpecularLighting
         in="fbSourceGraphic"
         result="result1"
         lighting-color="#ffffff"
         surfaceScale="2"
         specularConstant="2.20000005"
         specularExponent="55"
         id="feSpecularLighting227-8"><fePointLight
           x="-5000"
           y="-10000"
           z="20000"
           id="fePointLight227-4" /></feSpecularLighting><feComposite
         in2="fbSourceGraphic"
         in="result1"
         result="result2"
         operator="in"
         id="feComposite228-3" /><feComposite
         in="fbSourceGraphic"
         result="result4"
         operator="arithmetic"
         k2="2"
         k3="1"
         in2="result2"
         id="feComposite229-1"
         k1="0"
         k4="0" /><feComposite
         in2="result4"
         in="result4"
         operator="in"
         result="result91"
         id="feComposite230-4" /><feBlend
         mode="darken"
         in2="result91"
         id="feBlend230-9"
         result="fbSourceGraphic" /><feColorMatrix
         result="fbSourceGraphicAlpha"
         in="fbSourceGraphic"
         values="0 0 0 -1 0 0 0 0 -1 0 0 0 0 -1 0 0 0 0 1 0"
         id="feColorMatrix606" /><feColorMatrix
         id="feColorMatrix607"
         type="hueRotate"
         values="180"
         result="color1"
         in="fbSourceGraphic" /><feColorMatrix
         id="feColorMatrix608"
         values="-1 0 0 0 1 0 -1 0 0 1 0 0 -1 0 1 -0.21 -0.72 -0.07 2 0 "
         result="color2" /></filter><rect
       x="109.36116"
       y="550.15619"
       width="201.11092"
       height="46.220978"
       id="rect230-8" /><rect
       x="109.36116"
       y="550.15619"
       width="143.54698"
       height="40.276733"
       id="rect230-6" /><rect
       x="109.36116"
       y="550.15619"
       width="162.00244"
       height="94.768181"
       id="rect230-2" /><filter
       style="color-interpolation-filters:sRGB"
       inkscape:label="Invert"
       id="filter599"
       x="-0.030241298"
       y="-0.017633723"
       width="1.0604826"
       height="1.0176337"><feColorMatrix
         type="hueRotate"
         values="180"
         result="color1"
         id="feColorMatrix598" /><feColorMatrix
         values="-1 0 0 0 1 0 -1 0 0 1 0 0 -1 0 1 -0.21 -0.72 -0.07 2 0 "
         result="color2"
         id="feColorMatrix599" /></filter><filter
       style="color-interpolation-filters:sRGB"
       inkscape:label="Invert"
       id="filter601"
       x="-0.022610124"
       y="-0.016291469"
       width="1.0452164"
       height="1.0162915"><feColorMatrix
         type="hueRotate"
         values="180"
         result="color1"
         id="feColorMatrix600" /><feColorMatrix
         values="-1 0 0 0 1 0 -1 0 0 1 0 0 -1 0 1 -0.21 -0.72 -0.07 2 0 "
         result="color2"
         id="feColorMatrix601" /></filter><filter
       style="color-interpolation-filters:sRGB"
       inkscape:label="Invert"
       id="filter603"
       x="-0.02190431"
       y="-0.014384996"
       width="1.0438086"
       height="1.014385"><feColorMatrix
         type="hueRotate"
         values="180"
         result="color1"
         id="feColorMatrix602" /><feColorMatrix
         values="-1 0 0 0 1 0 -1 0 0 1 0 0 -1 0 1 -0.21 -0.72 -0.07 2 0 "
         result="color2"
         id="feColorMatrix603" /></filter><filter
       style="color-interpolation-filters:sRGB"
       inkscape:label="Invert"
       id="filter605"
       x="0"
       y="-0.0254203"
       width="1.0118379"
       height="1.0254203"><feColorMatrix
         type="hueRotate"
         values="180"
         result="color1"
         id="feColorMatrix604" /><feColorMatrix
         values="-1 0 0 0 1 0 -1 0 0 1 0 0 -1 0 1 -0.21 -0.72 -0.07 2 0 "
         result="color2"
         id="feColorMatrix605" /></filter></defs><g
     inkscape:label="Layer 1"
     inkscape:groupmode="layer"
     id="layer1"
     transform="translate(-27.046163,-145.51178)"><path
       d="m 162.79606,30.605312 73.30608,73.371168 c 4.63441,4.64711 4.63441,12.15695 0,16.80366 l -72.75942,72.75942 c -4.6344,4.63441 -12.15695,4.63441 -16.79129,0 -4.64709,-4.64709 -4.64709,-12.15695 0,-16.80365 l 51.98785,-51.98785 -153.979244,0.0127 c -6.561371,0 -11.869294,-5.32334 -11.869294,-11.88491 0,-6.54639 5.310661,-11.86928 11.869294,-11.86928 H 199.60659 l -53.6526,-53.599248 c -4.63439,-4.647111 -4.63439,-12.143933 0,-16.791283 2.22698,-2.239662 5.25724,-3.50059 8.42202,-3.50059 3.1625,-0.01273 6.19529,1.25074 8.42199,3.487888 z"
       id="path1-32"
       style="stroke-width:0.650801;filter:url(#filter230)"
       transform="matrix(0.04979854,0,0,0.04979854,84.70125,161.74026)" /><path
       d="m 162.79606,30.605312 73.30608,73.371168 c 4.63441,4.64711 4.63441,12.15695 0,16.80366 l -72.75942,72.75942 c -4.6344,4.63441 -12.15695,4.63441 -16.79129,0 -4.64709,-4.64709 -4.64709,-12.15695 0,-16.80365 l 51.98785,-51.98785 -153.979244,0.0127 c -6.561371,0 -11.869294,-5.32334 -11.869294,-11.88491 0,-6.54639 5.310661,-11.86928 11.869294,-11.86928 H 199.60659 l -53.6526,-53.599248 c -4.63439,-4.647111 -4.63439,-12.143933 0,-16.791283 2.22698,-2.239662 5.25724,-3.50059 8.42202,-3.50059 3.1625,-0.01273 6.19529,1.25074 8.42199,3.487888 z"
       id="path1-32-5"
       style="stroke-width:0.650801;filter:url(#filter230-1)"
       transform="matrix(0.04979854,0,0,0.04979854,158.52861,161.74026)" /><path
       d="m 162.79606,30.605312 73.30608,73.371168 c 4.63441,4.64711 4.63441,12.15695 0,16.80366 l -72.75942,72.75942 c -4.6344,4.63441 -12.15695,4.63441 -16.79129,0 -4.64709,-4.64709 -4.64709,-12.15695 0,-16.80365 l 51.98785,-51.98785 -153.979244,0.0127 c -6.561371,0 -11.869294,-5.32334 -11.869294,-11.88491 0,-6.54639 5.310661,-11.86928 11.869294,-11.86928 H 199.60659 l -53.6526,-53.599248 c -4.63439,-4.647111 -4.63439,-12.143933 0,-16.791283 2.22698,-2.239662 5.25724,-3.50059 8.42202,-3.50059 3.1625,-0.01273 6.19529,1.25074 8.42199,3.487888 z"
       id="path1-32-6"
       style="stroke-width:0.650801;filter:url(#filter230-4)"
       transform="matrix(0.04979854,0,0,0.04979854,232.35597,161.74026)" /><g
       id="g274"
       style="filter:url(#filter605)"><g
         id="g1"
         transform="matrix(0.08310699,0,0,0.08310699,34.885597,143.6384)"
         style="fill:#000000;stroke:#000000;stroke-width:15.9561;stroke-dasharray:none;stroke-opacity:1;filter:url(#filter147)"><path
           d="m 351.34,422.2 c -2.9609,0 -5.4219,2.3984 -5.4219,5.4219 v 32.98 h -304.4 v -311.14 l 90.379,-90.379 v 82.738 h -45.16 c -2.9609,0 -5.4219,2.3984 -5.4219,5.4219 0,3.0195 2.3984,5.4219 5.4219,5.4219 h 50.578 c 2.9609,0 5.4219,-2.3984 5.4219,-5.4219 v -95.84 h 203.22 v 92.16 c 0,2.9609 2.3984,5.4219 5.4219,5.4219 3.0195,0 5.4219,-2.3984 5.4219,-5.4219 l 0.0195,-97.543 c 0,-2.9609 -2.3984,-5.4219 -5.4219,-5.4219 h -214.08 c 0,0 -0.46094,0.10156 -0.71875,0.16016 -0.26172,0 -0.46094,0.05859 -0.66016,0.16016 -0.92188,0.26172 -1.8008,0.62109 -2.4609,1.3398 l -101.179999,101.1 c -0.51953,0.51953 -0.92188,1.1211 -1.1797,1.8008 -0.26172,0.66016 -0.39844,1.3398 -0.39844,2.0391 v 318.78 c 0,2.9609 2.3984,5.4219 5.4219,5.4219 H 351.38238 c 2.9609,0 5.4219,-2.3984 5.4219,-5.4219 v -38.398 c 0,-2.9609 -2.3984,-5.4219 -5.4219,-5.4219 z"
           id="path1"
           style="fill:#000000;stroke:#000000;stroke-width:15.9561;stroke-dasharray:none;stroke-opacity:1" /><path
           d="m 152.88,261.84 h 86.578 c 2.9609,0 5.4219,-2.3984 5.4219,-5.4219 0,-3.0195 -2.3984,-5.4219 -5.4219,-5.4219 H 152.88 c -2.9609,0 -5.4219,2.3984 -5.4219,5.4219 0,3.0195 2.3984,5.4219 5.4219,5.4219 z"
           id="path2"
           style="fill:#000000;stroke:#000000;stroke-width:15.9561;stroke-dasharray:none;stroke-opacity:1" /><path
           d="m 152.88,321.12 h 86.578 c 2.9609,0 5.4219,-2.3984 5.4219,-5.4219 0,-3.0195 -2.3984,-5.4219 -5.4219,-5.4219 H 152.88 c -2.9609,0 -5.4219,2.3984 -5.4219,5.4219 0,3.0195 2.3984,5.4219 5.4219,5.4219 z"
           id="path3"
           style="fill:#000000;stroke:#000000;stroke-width:15.9561;stroke-dasharray:none;stroke-opacity:1" /><path
           d="m 112.12,256.4 c 0,11.82 -17.699,11.82 -17.699,0 0,-11.801 17.699,-11.801 17.699,0"
           id="path4"
           style="fill:#000000;stroke:#000000;stroke-width:15.9561;stroke-dasharray:none;stroke-opacity:1" /><path
           d="m 112.12,315.7 c 0,11.801 -17.699,11.801 -17.699,0 0,-11.82 17.699,-11.82 17.699,0"
           id="path5"
           style="fill:#000000;stroke:#000000;stroke-width:15.9561;stroke-dasharray:none;stroke-opacity:1" /><path
           d="m 112.12,375.04 c 0,11.82 -17.699,11.82 -17.699,0 0,-11.82 17.699,-11.82 17.699,0"
           id="path6"
           style="fill:#000000;stroke:#000000;stroke-width:15.9561;stroke-dasharray:none;stroke-opacity:1" /><path
           d="m 152.88,380.42 h 105.58 c 2.9609,0 5.4219,-2.3984 5.4219,-5.4219 0,-3.0195 -2.3984,-5.4219 -5.4219,-5.4219 H 152.88 c -2.9609,0 -5.4219,2.3984 -5.4219,5.4219 0,3.0195 2.3984,5.4219 5.4219,5.4219 z"
           id="path7"
           style="fill:#000000;stroke:#000000;stroke-width:15.9561;stroke-dasharray:none;stroke-opacity:1" /><path
           d="m 436.38,248.32 -58.262,34.102 -58.262,-34.102 c -2.5586,-1.4805 -5.8789,-0.66016 -7.418,1.9414 -1.4805,2.5586 -0.66016,5.8789 1.9414,7.3789 l 58.32,34.16 v 74.598 c 0,2.9609 2.3984,5.4219 5.4219,5.4219 3.0195,0 5.4219,-2.3984 5.4219,-5.4219 v -74.598 l 58.32,-34.16 c 2.5586,-1.4805 3.4414,-4.8203 1.9414,-7.3789 -1.4805,-2.5586 -4.8203,-3.4414 -7.418,-1.9414 z"
           id="path8"
           style="fill:#000000;stroke:#000000;stroke-width:15.9561;stroke-dasharray:none;stroke-opacity:1" /><path
           d="m 481.12,230.8 c 0,-0.35938 -0.10156,-0.71875 -0.19922,-1.0781 -0.10156,-0.30078 -0.26172,-0.62109 -0.46094,-0.92188 -0.16016,-0.30078 -0.35938,-0.55859 -0.55859,-0.82031 -0.26172,-0.30078 -0.51953,-0.51953 -0.82031,-0.71875 -0.16016,-0.16016 -0.30078,-0.30078 -0.51953,-0.39844 l -97.801,-57.242 c -1.6797,-0.98047 -3.7812,-0.98047 -5.4805,0 l -97.801,57.242 c 0,0 -0.30078,0.30078 -0.51953,0.39844 -0.30078,0.19922 -0.55859,0.46094 -0.82031,0.71875 -0.19922,0.26172 -0.39844,0.55859 -0.55859,0.87891 -0.16016,0.30078 -0.30078,0.55859 -0.46094,0.92188 -0.10156,0.35938 -0.16016,0.71875 -0.19922,1.0781 0,0.19922 -0.16016,0.39844 -0.16016,0.66016 v 114.48 c 0,1.9414 1.0195,3.6797 2.6602,4.6602 l 97.801,57.242 c 0.82031,0.51953 1.8008,0.71875 2.7188,0.71875 0.92188,0 1.8984,-0.26172 2.7188,-0.71875 l 97.801,-57.242 c 1.6406,-0.98047 2.6602,-2.7617 2.6602,-4.6602 v -114.48 c 0,0 -0.10156,-0.39844 -0.16016,-0.66016 z m -103,166.1 -92.359,-54.062 v -108.28 l 92.359,-54.062 92.359,54.062 v 108.28 z"
           id="path9"
           style="fill:#000000;stroke:#000000;stroke-width:15.9561;stroke-dasharray:none;stroke-opacity:1" /></g><text
         xml:space="preserve"
         transform="matrix(0.26458333,0,0,0.26458333,-2.4099195,49.353205)"
         id="text230"
         style="font-style:normal;font-variant:normal;font-weight:normal;font-stretch:normal;font-size:32px;line-height:1.25;font-family:Inter;-inkscape-font-specification:Inter;white-space:pre;shape-inside:url(#rect230);display:inline;fill:#000000;fill-opacity:1;stroke:none"><tspan
           x="109.36133"
           y="579.77691"
           id="tspan5">platform.yaml</tspan></text></g><g
       id="g275"
       transform="translate(-1.7953488)"
       style="filter:url(#filter603)"><g
         id="g2"
         transform="matrix(0.08783513,0,0,0.08783513,107.70351,145.94513)"
         style="filter:url(#filter142)"><path
           d="M 394.8,126.72 H 237.31 c -7.0703,0 -12.801,5.7305 -12.801,12.801 v 58.012 c 0,3.3945 1.3477,6.6484 3.75,9.0508 2.3984,2.3984 5.6562,3.7461 9.0508,3.7461 h 86.68 v 36.711 c 0,3.3945 1.3516,6.6523 3.75,9.0508 2.4023,2.4023 5.6562,3.75 9.0508,3.75 h 58.012 c 3.3945,0 6.6484,-1.3477 9.0508,-3.75 2.3984,-2.3984 3.7461,-5.6562 3.7461,-9.0508 v -107.52 c 0,-3.3945 -1.3477,-6.6484 -3.7461,-9.0508 -2.4023,-2.3984 -5.6562,-3.75 -9.0508,-3.75 z m -12.801,107.52 h -32.41 v -36.707 c 0,-3.3945 -1.3477,-6.6523 -3.75,-9.0508 -2.3984,-2.4023 -5.6562,-3.75 -9.0508,-3.75 h -86.68 v -32.41 h 131.89 z"
           id="path1-3" /><path
           d="m 199.78,297.42 c 0,7.0664 -5.7305,12.801 -12.801,12.801 -7.0664,0 -12.797,-5.7344 -12.797,-12.801 0,-7.0703 5.7305,-12.801 12.797,-12.801 7.0703,0 12.801,5.7305 12.801,12.801"
           id="path2-6" /><path
           d="m 199.78,247.45 c 0,7.0703 -5.7305,12.801 -12.801,12.801 -7.0664,0 -12.797,-5.7305 -12.797,-12.801 0,-7.0703 5.7305,-12.801 12.797,-12.801 7.0703,0 12.801,5.7305 12.801,12.801"
           id="path3-7" /><path
           d="m 249.7,347.34 c 0,7.0703 -5.7305,12.801 -12.801,12.801 -7.0703,0 -12.801,-5.7305 -12.801,-12.801 0,-7.0664 5.7305,-12.801 12.801,-12.801 7.0703,0 12.801,5.7344 12.801,12.801"
           id="path4-5" /><path
           d="m 299.67,347.34 c 0,7.0703 -5.7305,12.801 -12.797,12.801 -7.0703,0 -12.801,-5.7305 -12.801,-12.801 0,-7.0664 5.7305,-12.801 12.801,-12.801 7.0664,0 12.797,5.7344 12.797,12.801"
           id="path5-3" /><path
           d="m 349.59,297.42 c 0,7.0664 -5.7305,12.801 -12.801,12.801 -7.0703,0 -12.801,-5.7344 -12.801,-12.801 0,-7.0703 5.7305,-12.801 12.801,-12.801 7.0703,0 12.801,5.7305 12.801,12.801"
           id="path6-5" /><path
           d="M 474.32,123.39 C 474.26531,108.617 468.3669,94.464 457.91,84.027 447.453,73.586 433.289,67.715 418.512,67.687 H 138.242 V 17.921 c 0.004,-3.4336 -1.375,-6.7188 -3.8203,-9.125 -2.4453,-2.4062 -5.7539,-3.7305 -9.1836,-3.6758 h -32.562 c -14.797,0.011718 -28.984,5.8984 -39.445,16.359 -10.465,10.465 -16.348,24.652 -16.363,39.449 v 298.09 c 0.02734,15.332 6.1328,30.023 16.98,40.859 10.844,10.836 25.543,16.93 40.875,16.945 h 279.04 v 77.258 c 0,3.3984 1.3477,6.6523 3.7461,9.0547 2.4023,2.3984 5.6562,3.7461 9.0508,3.7461 h 30.723 c 15.332,-0.0117 30.031,-6.1055 40.875,-16.941 10.848,-10.836 16.953,-25.531 16.98,-40.863 z M 62.47,60.929 c 0.01172,-8.0078 3.1992,-15.684 8.8633,-21.348 5.6602,-5.6602 13.336,-8.8477 21.344,-8.8633 h 19.969 v 270.49 h -17.922 c -11.473,-0.0117 -22.691,3.4102 -32.203,9.8281 z m 32.254,330.29 c -11.512,0 -22.152,-6.1445 -27.91,-16.113 -5.7578,-9.9727 -5.7578,-22.258 0,-32.23 5.7578,-9.9727 16.398,-16.117 27.91,-16.117 h 30.723 c 3.3945,0 6.6484,-1.3477 9.0508,-3.75 2.3984,-2.3984 3.7461,-5.6562 3.7461,-9.0508 v -220.72 h 280.27 c 8,0.01563 15.668,3.1953 21.328,8.8438 5.6602,5.6523 8.8555,13.316 8.8828,21.312 l 0.66406,277.55 c -9.4922,-6.3789 -20.668,-9.7812 -32.102,-9.7773 z m 322.56,90.062 H 399.362 V 416.82 h 17.922 c 11.512,0 22.152,6.1406 27.91,16.113 5.7578,9.9727 5.7578,22.258 0,32.23 -5.7578,9.9727 -16.398,16.117 -27.91,16.117 z"
           id="path7-6" /><path
           d="m 349.59,347.34 c 0,7.0703 -5.7305,12.801 -12.801,12.801 -7.0703,0 -12.801,-5.7305 -12.801,-12.801 0,-7.0664 5.7305,-12.801 12.801,-12.801 7.0703,0 12.801,5.7344 12.801,12.801"
           id="path8-2" /><path
           d="m 199.73,347.34 c 0,7.0703 -5.7305,12.801 -12.801,12.801 -7.0664,0 -12.797,-5.7305 -12.797,-12.801 0,-7.0664 5.7305,-12.801 12.797,-12.801 7.0703,0 12.801,5.7344 12.801,12.801"
           id="path9-9" /><path
           d="m 199.73,197.53 c 0,7.0664 -5.7305,12.797 -12.801,12.797 -7.0664,0 -12.797,-5.7305 -12.797,-12.797 0,-7.0703 5.7305,-12.801 12.797,-12.801 7.0703,0 12.801,5.7305 12.801,12.801"
           id="path10" /></g><text
         xml:space="preserve"
         transform="matrix(0.26458333,0,0,0.26458333,82.500732,49.885185)"
         id="text230-9"
         style="font-style:normal;font-variant:normal;font-weight:normal;font-stretch:normal;font-size:32px;line-height:1.25;font-family:Inter;-inkscape-font-specification:Inter;white-space:pre;shape-inside:url(#rect230-8);display:inline;fill:#000000;fill-opacity:1;stroke:none"><tspan
           x="109.36133"
           y="579.77691"
           id="tspan6">Blueprint</tspan></text></g><g
       id="g276"
       transform="translate(-1.7326811)"
       style="filter:url(#filter601)"><g
         id="g3"
         transform="matrix(0.08761384,0,0,0.08761384,181.52531,145.3673)"
         style="stroke:#000000;stroke-width:2.20726;stroke-opacity:1;filter:url(#filter137)"><path
           d="m 211.68,157.75 -4.6445,27.152 c -9.8164,3.7422 -19.02,9.0586 -27.172,15.699 l -25.852,-9.5742 c -5.8359,-2.1562 -12.402,0.19922 -15.52,5.5977 l -17.598,30.449 c -3.1211,5.3984 -1.8945,12.262 2.9062,16.246 l 21.215,17.609 c -0.83984,5.2031 -1.2617,10.457 -1.2617,15.695 0,5.2383 0.42188,10.492 1.2617,15.695 l -21.215,17.609 c -4.8008,3.9844 -6.0234,10.848 -2.9062,16.246 l 17.598,30.449 c 3.1211,5.3984 9.6797,7.7539 15.52,5.5977 l 25.852,-9.5742 c 8.1523,6.6367 17.359,11.957 27.172,15.699 l 4.6445,27.152 c 1.0508,6.1445 6.3789,10.637 12.613,10.637 h 35.137 c 6.2344,0 11.559,-4.4922 12.613,-10.637 l 4.6445,-27.152 c 9.8164,-3.7422 19.02,-9.0586 27.176,-15.695 l 25.852,9.5703 c 5.8359,2.1523 12.398,-0.19922 15.52,-5.5977 l 17.598,-30.449 c 3.1211,-5.3984 1.8945,-12.262 -2.9062,-16.246 l -21.215,-17.609 c 0.83984,-5.2031 1.2617,-10.457 1.2617,-15.695 0,-5.2383 -0.42187,-10.492 -1.2617,-15.695 l 21.215,-17.609 c 4.8008,-3.9844 6.0234,-10.848 2.9062,-16.246 l -17.598,-30.449 c -3.1211,-5.3984 -9.6797,-7.7539 -15.52,-5.5977 l -25.855,9.5742 c -8.1562,-6.6367 -17.359,-11.957 -27.172,-15.699 l -4.6445,-27.152 c -1.0508,-6.1445 -6.3789,-10.637 -12.613,-10.637 h -35.137 c -6.2344,0 -11.559,4.4922 -12.613,10.637 z m 19.293,39.008 4.1133,-24.055 h 13.555 l 4.1133,24.055 c 0.82813,4.8438 4.3555,8.7812 9.0781,10.141 11.367,3.2695 21.883,9.3438 30.414,17.566 3.5352,3.4141 8.7109,4.4961 13.324,2.7891 l 22.914,-8.4844 6.7969,11.758 -18.789,15.598 c -3.7734,3.1328 -5.4258,8.1484 -4.25,12.91 1.4258,5.7812 2.1484,11.699 2.1484,17.59 0,5.891 -0.72266,11.809 -2.1484,17.59 -1.1758,4.7617 0.47656,9.7773 4.25,12.91 l 18.789,15.598 -6.7969,11.754 -22.914,-8.4844 c -4.6133,-1.7031 -9.7891,-0.62109 -13.324,2.7891 -8.5234,8.2227 -19.043,14.297 -30.414,17.566 -4.7227,1.3594 -8.2461,5.2969 -9.0781,10.141 l -4.1133,24.055 h -13.555 l -4.1133,-24.055 c -0.82812,-4.8438 -4.3555,-8.7812 -9.0742,-10.141 -11.371,-3.2695 -21.887,-9.3438 -30.418,-17.566 -3.5312,-3.4102 -8.707,-4.4922 -13.324,-2.7891 l -22.91,8.4844 -6.7969,-11.754 18.789,-15.598 c 3.7734,-3.1328 5.4258,-8.1484 4.25,-12.91 -1.4258,-5.7812 -2.1484,-11.699 -2.1484,-17.59 0,-5.891 0.72266,-11.809 2.1484,-17.59 1.1758,-4.7617 -0.47656,-9.7773 -4.25,-12.91 l -18.789,-15.598 6.7969,-11.758 22.91,8.4844 c 4.6133,1.707 9.7852,0.62109 13.324,-2.7891 8.5312,-8.2266 19.055,-14.305 30.418,-17.57 4.7188,-1.3555 8.2422,-5.293 9.0742,-10.137 z"
           id="path1-1"
           style="stroke:#000000;stroke-width:2.20726;stroke-opacity:1" /><path
           d="m 192.71,276.63 c 0,27.102 22.047,49.148 49.152,49.148 27.102,0 49.148,-22.047 49.148,-49.148 0,-27.102 -22.047,-49.152 -49.148,-49.152 -27.102,0 -49.152,22.047 -49.152,49.152 z m 49.152,-23.562 c 12.992,0 23.559,10.57 23.559,23.559 0,12.992 -10.566,23.559 -23.559,23.559 -12.992,0 -23.559,-10.566 -23.559,-23.559 0,-12.988 10.57,-23.559 23.559,-23.559 z"
           id="path2-2"
           style="stroke:#000000;stroke-width:2.20726;stroke-opacity:1" /><path
           d="m 39.137,332.01 c 6.9141,-1.4609 11.336,-8.2461 9.8789,-15.164 -2.7383,-12.973 -4.1289,-26.504 -4.1289,-40.215 0,-83.16 52.57,-157.76 130.81,-185.63 10.586,-3.7617 21.418,-6.5898 32.418,-8.4805 l -16.566,16.566 c -4.9961,4.9961 -4.9961,13.098 0,18.094 2.4961,2.4961 5.7734,3.7461 9.0469,3.7461 3.2735,0 6.5508,-1.25 9.0469,-3.7461 l 41.27,-41.27 c 4.9961,-4.9961 4.9961,-13.098 0,-18.094 l -41.27,-41.27 c -4.9961,-4.9961 -13.102,-4.9961 -18.094,0 -4.9961,4.9961 -4.9961,13.098 0,18.094 l 21.297,21.297 c -15.559,2.0078 -30.855,5.668 -45.727,10.953 -88.418,31.496 -147.82,115.79 -147.82,209.74 0,15.484 1.5742,30.789 4.6758,45.5 1.2734,6.0234 6.5859,10.156 12.508,10.156 0.87891,0.004 1.7695,-0.0859 2.6562,-0.27344 z"
           id="path3-70"
           style="stroke:#000000;stroke-width:2.20726;stroke-opacity:1" /><path
           d="m 373.16,423.42 c -36.16,32.367 -82.789,50.191 -131.3,50.191 -46.812,0 -92.141,-16.68 -127.65,-46.973 -8.5156,-7.2422 -16.371,-15.168 -23.52,-23.715 l 22.578,6.0508 c 6.832,1.8242 13.844,-2.2266 15.672,-9.0469 1.8281,-6.8281 -2.2227,-13.844 -9.0469,-15.672 l -56.375,-15.105 c -6.832,-1.8242 -13.844,2.2266 -15.672,9.0469 l -15.109,56.375 c -1.8281,6.8242 2.2227,13.844 9.0469,15.672 1.1094,0.29687 2.2266,0.4375 3.3203,0.4375 5.6484,0 10.82,-3.7695 12.352,-9.4844 l 7.7969,-29.094 c 9.5625,12.441 20.387,23.828 32.363,34.012 40.121,34.234 91.352,53.086 144.25,53.086 54.816,0 107.51,-20.145 148.36,-56.715 5.2695,-4.7109 5.7148,-12.801 1,-18.066 -4.7148,-5.2734 -12.809,-5.7148 -18.066,-1 z"
           id="path4-9"
           style="stroke:#000000;stroke-width:2.20726;stroke-opacity:1" /><path
           d="m 492.26,363.09 c -1.8281,-6.8242 -8.8242,-10.855 -15.672,-9.0469 l -29.047,7.7852 c 6.0703,-14.602 10.508,-29.691 13.258,-45.109 0.0234,-0.13281 0.0469,-0.26562 0.0625,-0.39844 2.3633,-12.996 3.5664,-26.344 3.5664,-39.684 0,-96.445 -61.5,-181.43 -153.04,-211.48 -6.7148,-2.2148 -13.941,1.4492 -16.148,8.168 -2.2031,6.7109 1.4531,13.941 8.168,16.148 81.004,26.59 135.43,101.8 135.43,187.17 0,11.934 -1.082,23.867 -3.2188,35.473 -0.0312,0.16406 -0.0586,0.33203 -0.082,0.50391 -1.9531,10.828 -4.8594,21.477 -8.6836,31.879 l -6.0742,-22.672 c -1.8281,-6.8242 -8.832,-10.855 -15.672,-9.0469 -6.8242,1.8281 -10.875,8.8438 -9.0469,15.672 l 15.105,56.375 c 1.5312,5.7148 6.7031,9.4844 12.352,9.4844 1.0938,0 2.2109,-0.14062 3.3203,-0.4375 l 56.375,-15.105 c 6.8281,-1.832 10.875,-8.8477 9.0469,-15.676 z"
           id="path5-36"
           style="stroke:#000000;stroke-width:2.20726;stroke-opacity:1" /></g><text
         xml:space="preserve"
         transform="matrix(0.26458333,0,0,0.26458333,160.38022,50.517282)"
         id="text230-0"
         style="font-style:normal;font-variant:normal;font-weight:normal;font-stretch:normal;font-size:32px;line-height:1.25;font-family:Inter;-inkscape-font-specification:Inter;white-space:pre;shape-inside:url(#rect230-6);display:inline;fill:#000000;fill-opacity:1;stroke:none"><tspan
           x="109.36133"
           y="579.77691"
           id="tspan8">Builder</tspan></text></g><g
       id="g277"
       style="filter:url(#filter599)"><path
         d="m 154.76898,96.2462 c 0.36103,-1.445578 0.54158,-2.889744 0.54158,-4.515908 0,-10.295467 -8.48854,-18.784006 -18.784,-18.784006 -2.52872,0 -5.05743,0.541584 -7.40552,1.445577 -5.05742,-12.282311 -16.97884,-20.59058 -30.705424,-20.59058 -17.159463,0 -31.246938,13.004447 -32.873244,29.622397 C 59.219889,83.965265 54.3445,89.383861 54.3445,95.705991 v 0.722101 c -8.30827,1.626094 -14.450131,8.851198 -14.450131,17.520358 0,9.7536 7.947025,17.70097 17.700978,17.70097 h 95.006583 c 9.7536,0 17.70098,-7.94702 17.70098,-17.70097 0.17915,-9.03182 -6.68337,-16.6176 -15.53457,-17.702391 z m -2.16765,31.78986 H 57.594747 c -7.766755,0 -14.089239,-6.32248 -14.089239,-14.08924 0,-7.76675 6.322484,-14.089234 14.089239,-14.089234 h 1.265026 c -0.541584,-1.265026 -0.902617,-2.528711 -0.902617,-3.974394 0,-4.8768 3.974394,-8.851195 8.851194,-8.851195 0.722101,0 1.445578,0.180524 2.167643,0.361033 v -0.361033 c 0,-16.255294 13.18507,-29.441775 29.441775,-29.441775 13.908612,0 25.467382,9.573331 28.718232,22.397156 2.52871,-1.987127 5.77956,-3.250777 9.39271,-3.250777 8.30827,0 15.17226,6.863997 15.17226,15.172267 0,2.889744 -0.90261,5.598936 -2.34816,7.947025 h 3.25078 c 7.76676,0 14.08924,6.322477 14.08924,14.089237 0.17914,7.76923 -6.32389,14.0903 -14.0903,14.0903 z"
         id="path1-6"
         style="stroke-width:0.352778;filter:url(#filter220)"
         transform="matrix(0.08397409,0,0,0.08397409,267.38756,148.32238)" /><g
         id="g87"
         transform="matrix(0.07851623,0,0,0.07851623,255.94841,145.26231)"
         style="stroke:#000000;stroke-width:10.219;stroke-opacity:1;filter:url(#filter132)"><path
           d="m 493.56,357.38 -63.477,-31.738 c -5.1211,-2.5586 -10.762,-0.51953 -13.32,4.6016 -2.5586,5.1211 -0.51953,10.762 4.6016,13.32 l 45.559,23.039 -210.92,105.98 -210.94,-105.98 45.559,-23.039 c 5.1211,-2.5586 7.1602,-8.6992 4.6016,-13.32 -2.5586,-5.1211 -8.6992,-7.1602 -13.32,-4.6016 l -63.461,31.738 c -3.5781,1.5391 -5.6406,5.1211 -5.6406,9.2188 0,4.1016 2.0391,7.1602 5.6406,9.2188 l 232.96,117.24 c 1.5391,0.51953 3.0781,1.0195 4.6016,1.0195 1.5391,0 3.0781,-0.51953 4.6016,-1.0195 l 232.96,-117.24 c 3.5781,-1.5391 5.6406,-5.1211 5.6406,-9.2188 0,-4.1016 -2.0391,-7.1797 -5.6406,-9.2188 z"
           id="path1-5"
           style="stroke:#000000;stroke-width:10.219;stroke-opacity:1" /><path
           d="m 18.441,265.22 232.96,117.24 c 1.5391,0.51953 3.0781,1.0195 4.6016,1.0195 1.5391,0 3.0781,-0.51953 4.6016,-1.0195 l 232.96,-117.24 c 3.5781,-1.5391 5.6406,-5.1211 5.6406,-9.2188 0,-3.5781 -2.0391,-7.1602 -5.6406,-9.2188 l -62.961,-31.738 c -5.1211,-2.5586 -10.762,-0.51953 -13.32,4.6016 -2.5586,5.1211 -0.51953,10.762 4.6016,13.32 l 45.559,23.039 -211.44,105.98 -210.94,-105.98 45.559,-23.039 c 5.1211,-2.5586 7.1602,-8.6992 4.6016,-13.32 -2.5586,-5.1211 -8.6992,-7.1602 -13.32,-4.6016 l -63.461,31.738 c -3.5781,1.5391 -5.6406,5.1211 -5.6406,9.2188 0,3.5781 2.0391,7.1602 5.6406,9.2188 z"
           id="path2-9"
           style="stroke:#000000;stroke-width:10.219;stroke-opacity:1" /><path
           d="m 18.441,154.62 232.96,117.24 c 1.5391,0.51953 3.0781,1.0195 4.6016,1.0195 1.5391,0 3.0781,-0.51953 4.6016,-1.0195 l 232.96,-117.24 c 3.5781,-1.5391 5.6406,-5.1211 5.6406,-9.2188 0,-4.1016 -2.0391,-7.1602 -5.6406,-9.2188 l -232.96,-116.72 c -3.0781,-1.5391 -6.1406,-1.5391 -9.2188,0 l -232.94,117.24 c -3.5781,1.5391 -5.6406,5.1211 -5.6406,9.2188 0,4.1016 2.0391,6.6602 5.6406,8.6992 z m 237.56,-115.2 210.94,105.98 -210.94,106 -210.94,-106 z"
           id="path3-2"
           style="stroke:#000000;stroke-width:10.219;stroke-opacity:1" /></g><text
         xml:space="preserve"
         transform="matrix(0.26458333,0,0,0.26458333,224.55309,47.736379)"
         id="text230-05"
         style="font-style:normal;font-variant:normal;font-weight:normal;font-stretch:normal;font-size:32px;line-height:1.25;font-family:Inter;-inkscape-font-specification:Inter;text-align:center;white-space:pre;shape-inside:url(#rect230-2);display:inline;fill:#000000;fill-opacity:1;stroke:none"
         x="74.81604"
         y="0"><tspan
           x="148.93262"
           y="579.77691"
           id="tspan9">Cloud
</tspan><tspan
           x="132.07324"
           y="619.77691"
           id="tspan10">Platform</tspan></text></g></g></svg>
